<?xml version="1.0"?>

<svg id="Layer_1" data-name="Layer 1" xmlns="http://www.w3.org/2000/svg" viewBox="0 0 1565.61 896.1">

<defs><style>
.cls-1,
.cls-2{fill:#b9b9b9;}
.cls-1,
.cls-2,
.cls-3,
.cls-4,
.cls-5{stroke:#fff;stroke-width:1.5px;}
.cls-1,.cls-3{stroke-miterlimit:10;}
.cls-3,
.cls-4{fill:#cecece;}
.cls-5{fill:#fc9272;}

</style></defs>
<title>Blank map of Kazakhstan</title>
<path class="cls-1" d="M69.2,425.5" transform="translate(-0.64 -0.37)"/>
<path class="cls-2" d="M241.8,518.1c-.1.1-.3.1-.4.2-.3.1-.5.1-.8.2A8.4,8.4,0,0,1,241.8,518.1Z" transform="translate(-0.64 -0.37)"/>
<path class="cls-1" d="M241.8,518.1c-.1.1-.3.1-.4.2-.3.1-.5.1-.8.2A8.4,8.4,0,0,1,241.8,518.1Z" transform="translate(-0.64 -0.37)"/>
<path class="cls-3" d="M1195.9,323c-.5,1.7-1.3,1.6-3.9,4.9-2.4,3-2.7,4.4-4.8,5.4a11.24,11.24,0,0,1-2.7.8c-4.3,1.3-6.9,2.1-8.5,4.3a8,8,0,0,0-1.3,4.2c0,1.8.8,2.3,1.2,4.8a10.73,10.73,0,0,1,0,4c-.5,2.4-1.8,2.9-1.9,5.1a8.6,8.6,0,0,0,.5,2.6c1.8,6.9,1.9,7.3,2.5,7.8,1.4,1.2,2.3.3,4.8,1.9a6.65,6.65,0,0,1,2.7,2.8c.3.8.3,1.3-.1,4.5-.5,4.4-.6,5.2-1.3,6a5.58,5.58,0,0,1-2.9,1.6c-4.4,1.8-8.4,6.7-7.5,9.3.6,1.7,2.8,1.2,5.1,4a15.29,15.29,0,0,1,2,4.2c1.6,4.4,2.4,6.7,2.3,8.9a16.83,16.83,0,0,1-3.1,9.2c-1.6,2.7-2.2,4.2-3.8,4.7-2.3.8-3.7-1-6.3,0a8.89,8.89,0,0,0-3.3,2.6c-1.1,1.2-2,2.3-2.1,3.8-.2,2.3,1.8,4.2,2.8,5.2a8.17,8.17,0,0,0,4.5,2.4,6.62,6.62,0,0,0,3.5-.5c.2,1,.5,2,.7,3.1a3.49,3.49,0,0,0-3.8.5,3.26,3.26,0,0,0-.7,3.3c.7,2.4,3.7,3.4,4.2,3.5,2,.6,2.8,0,4.7.9.5.3,2.2,1.1,2.1,2.1s-1.8,1.3-3.8,2.6-2.9,3-4,4.9a21.24,21.24,0,0,0-2.6,8.9c-.6,5.9-1.3,12.6-1.9,20.2a5.5,5.5,0,0,0-3.8,2.1,7.79,7.79,0,0,0-.9,4.5c0,1.7.3,2.1-.1,3-.6,1.4-1.7,1.4-2,2.5-.2.7.1,1.4,2.4,4.6,2.6,3.7,3,4.1,3.7,4.5a9.16,9.16,0,0,0,3.9,1.3,4.42,4.42,0,0,0,2.6,0c1.9-1,.8-5,2.4-5.7.5-.2.8.1,3.4,1a39.72,39.72,0,0,0,4,1.2,18.59,18.59,0,0,0,2.8.5c0,.7-.1,1.4-.1,2,.3.6.6,1.3.9,1.9,0,8.9-.1,17.7-.1,26.6-.6.2-1.6.6-2.7,1a43,43,0,0,0-4.3,1.5,11.25,11.25,0,0,0-3.6,2.6H1167c-.5-.4-1.1-.8-1.6-1.2a25.93,25.93,0,0,1-8.9-.9,22.72,22.72,0,0,1-5.7-2.3c-1.6-1-2.3-1.9-4-2.5a12.21,12.21,0,0,0-4-.4c-3.4.1-5.6-1.2-8.6-2.2-7-2.6-14.5-2.6-16.8-2.6-3.9,0-9.2,0-13.7,2.3-.6.3-1.8,1-3.8,2-3.5,1.8-4.5,1.9-6.6,3.1-3.5,1.9-4.8,3.2-9.2,5.9-4,2.5-3.9,2-6,3.4-3.7,2.5-7,6.7-13.5,15-1.5,1.9-2.7,3.5-4.8,5.9-1.5,1.8-2.8,3.2-3.7,4.3h-15c-.7-.4-1.3-.8-1.9-1.1q-86.4-1.35-172.7-2.6H827c-.4-.4-.9-.8-1.3-1.2H793.6v.3a2.18,2.18,0,0,1-.5-.8c-.3-.6-.3-1.1-.2-3.7.1-2.9.1-3.7-.4-4.4a3.05,3.05,0,0,0-2-1.3c-13.5-.1-26.9-.1-40.4-.1l-15-2.1c-1.1-1.9-2.2-2.5-3-2.6s-1.1.1-1.8-.2c-1.2-.5-1.1-1.6-2.3-2.8s-1.4-.5-3.2-1.9c0,0-.5-.4-2.8-2.8a3.2,3.2,0,0,1-1.9-.7,3.51,3.51,0,0,1-1.2-2.1c-.3-1-1.6-4.7-4.1-5.6a7.54,7.54,0,0,0-2.1-.2c-2.1-.1-3.8,0-4.9,0-6.5-3.9-12.9-7.9-19.4-11.8-3.8-1.4-7.6-2.8-11.5-4.2a26.58,26.58,0,0,0-5.7-3.2,27.83,27.83,0,0,0-4.4-1.4c-3.7-1-4-.4-6.2-1.2a39.43,39.43,0,0,1-4.4-2.5,27.43,27.43,0,0,0-3.2-1.8c-2.1-.8-2.6-.4-4.1-1.2s-1.1-1.3-2.7-2.1c-1.3-.8-1.8-.5-2.8-1.2s-1-1.2-1.9-2.5a9.23,9.23,0,0,0-4.4-3.5c-1.3-.4-2.3-.2-4.1.1-2.3.4-2.8,1-5.7,1.5a20.15,20.15,0,0,1-3,.2c-1.1,0-1.7,0-1.8-.3-.2-.6,2-1.5,4.1-3.9a12.21,12.21,0,0,0,1.2-1.5h.1c3.2-2.9,6.3-5.8,9.5-8.7a7.5,7.5,0,0,0,1.9-.9c2.1-1.3,3-2.8,4.2-4.1,1.7-1.8,3.2-2.3,5.3-3.3,6.9-3.5,16-10.9,18.9-13.2a168.25,168.25,0,0,0,12.5-11.6,2.7,2.7,0,0,0,1.1-1.1,2.52,2.52,0,0,0,.3-1.9c-.4-1-1.7-.6-2.7-1.9-.6-.7-.3-1-1-2.1a10.82,10.82,0,0,0-1.7-1.9c-1-1.3-.2-2.1-1-3.9-.6-1.4-1-1.1-1.8-2.6-.9-1.8-.3-2.3-1.1-3.6a1.38,1.38,0,0,0-.3-.4l1.2-.9c.8-.7,1.5-1.2,3.2-2.7.6-.5,1.5-1.3,2.7-2.3,1.9-1.7,2.2-2.1,2.4-2.6a5.34,5.34,0,0,0,.2-3c-.4-2.4-1.8-3.3-1.3-4.3.2-.4.6-.6,2-1.1,2.6-.8,4.7-1.2,6.5-1.6,2.3-.6,3.5-.8,3.7-1.4.4-1-1.2-1.9-3-5.5-1.4-2.8-1.2-3.6-1-4.1.4-.7,1.2-.9,2-1.2a9.33,9.33,0,0,1,3.3-.3c3,.1,3.6.4,4.1-.1s.2-1.4.2-3.5a57.13,57.13,0,0,1,1.1-7.6c.4-2.3.5-2.6.8-2.8,1.2-.9,3.1.3,7.2,1.7,3.7,1.2,3.3.6,8.1,2,2.6.8,3.7,1.3,7.8,2.5,2.8.8,4.4,1.2,6.2.6a21.78,21.78,0,0,0,2.8-1.3,19,19,0,0,0,3.4-1.8,14.93,14.93,0,0,0,4.1-5.3c1-2,.7-2.1,1.3-2.7,1.1-1,2.1-.4,7.6-.3a2.88,2.88,0,0,1,1.9.5c.9.8.5,2,.9,2.2,1.3.5,8.3-10.8,9.1-13a2,2,0,0,1,1-1.2,2.17,2.17,0,0,1,1-.2c.8.1,2.5-.1,6.3-.7a19.32,19.32,0,0,1,2.8-12.7,19.64,19.64,0,0,1,7.4-6.5,30.33,30.33,0,0,1,4.2-1.6c1.2-2.1,7.8-14.1,13.9-21.9,2.3-2.9,3.5-4.4,5.3-5.8,3.6-2.8,6-2.9,7.1-5.5s-.7-4.3.5-6,3.5-.7,7.6-1.8,8.5-4,9.7-7.9a4.74,4.74,0,0,0,0-3.9,3.68,3.68,0,0,0-1.9-1.6,6.13,6.13,0,0,1,3.8-.5,8.72,8.72,0,0,0,3.1.5c1.7-.2,2.4-1.1,3.8-1.9s3.1-1,6.6-1.4c4.4-.5,6.7-.8,7.8.5.4.4.4.8.7,2.8.9,5.8,1.1,5.6,1.2,7.8.1,3.1.1,4.7-.9,5.9-1.5,1.8-3.8,1.2-4.2,2.6s1.3,3.4,3.1,4c.8.3.9,0,3.5,0a17.42,17.42,0,0,1,3.8.2c1.7.6,1.6,1.8,3.3,3.1a8.16,8.16,0,0,0,6.6,1.2c1.6-.5,2.6-1.6,4.5-3.5,2-2.1,2.3-3.2,3.5-3.3s1.5.9,3.5,1.9a11.66,11.66,0,0,0,5.9.9,14.9,14.9,0,0,0,5.4-1.4c1.9-.8,1.8-1.1,3.1-1.4s2.2-.2,5.4.2c2.2.3,4,.6,4.9.7.2,4.5.5,9.1.7,13.7a5.07,5.07,0,0,0,2.6.7,6.37,6.37,0,0,0,4.7-1.9c1.4-1.4.9-2.6,2.4-3.5.9-.6,1.1-.2,2.6-.7a12.22,12.22,0,0,0,4.9-3.4c1.5-1.6,1.3-1.8,2.3-2.5,1.2-.8,1.7-.4,4.1-1.3s2.9-1.7,3.1-2a3.56,3.56,0,0,0,.3-1.9c0-2.6-.8-3.5-1.1-6.3-.2-1.6-.3-2.5.3-3.4a4.49,4.49,0,0,1,3-1.9,16.7,16.7,0,0,1,3.1-.2,12.72,12.72,0,0,0,3.1-.4c1.4-.7.8-2.3,2.1-4.5.4-.6,1.8-3,4.2-3.6,1.2-.3,2.2-.1,3.6-1a3.07,3.07,0,0,0,1.3-1.2,5.06,5.06,0,0,0,.8-1.9c.5-2.4,3.7-5.4,6.7-5.6a14.84,14.84,0,0,1,2.5.5c3.8,1.1,4.1,2.2,6.4,2.4,1.6.1,2.5-.4,3.2.3a2.45,2.45,0,0,1,.5,2.3c-.1.3-.2.7-2.1,2.4-1.1,1-1.3,1.2-1.4,1.6-.1.7.6,1,1.1,2.1a6.34,6.34,0,0,1,.2,3.8,7.73,7.73,0,0,1-1.4,3.2c-.7,1-1.4,1.4-1.2,1.6s1.6-.2,2.7-.5c2.4-.8,2.4-1.1,3.6-1.4a7.21,7.21,0,0,1,5,.2c1.4.6,1.3,1.3,2.9,1.9a3.52,3.52,0,0,0,3.2.1,2.7,2.7,0,0,0,1.2-1.8c.2-1.4-1.1-1.9-.9-3,.1-.5.9-1.1,2.6-2.3s2-1.3,2.4-1.3c.9,0,1,.8,2.2,1.2a3.7,3.7,0,0,0,3.5-.3,2.9,2.9,0,0,0,1.4-2.6c-.3-1.4-2.2-1.4-2.3-2.6,0-.6.6-1.3,1.9-2.7a13.61,13.61,0,0,1,1.8-1.8c2.2-1.5,4.2.1,5.5-1.2,1-1,0-2,1.2-4.1a5.55,5.55,0,0,1,3.5-2.8,6.15,6.15,0,0,1,2.3.1,28.29,28.29,0,0,0,5.9-.1c2.5-.3,5-.7,5.7-2.3a15.11,15.11,0,0,0,.6-3.5,4.64,4.64,0,0,1,.3-1.7c.5-.6,1.3-.8,3.3-1,3.5-.3,3.6-.2,4.3-.5s.8-.7,2.7-2.8c2.3-2.5,3.2-2.9,3.2-4.1a2.26,2.26,0,0,0-1.2-2.1c-.6-.3-1.3-.1-2.6.2a6.35,6.35,0,0,0-2.1.9,6,6,0,0,0-1.1,1c-.5.5-.5.7-.7.8-.6.3-1.6-.3-2.2-1-.8-1-.4-1.7-1.1-3.2-.6-1.3-1-1.1-2.1-2.7-.3-.4-2-3-1.2-3.9.4-.4,1.3-.3,1.7-.2,1.4.3,1.5,1.2,2.8,1.7a5.15,5.15,0,0,0,3.1,0,7.1,7.1,0,0,0,2.5-1.6c1.9-1.6,6,0,8.6,1.3-.1.1-.2.1-.2.2-.2,1,3.6,3,7.8,4.3,4.4,1.4,5.7.8,6.7,2.2,1.2,1.7.6,4.4-.1,7.9-.5,2.2-1,3.4-.5,5.3a19.85,19.85,0,0,1,.9,2.6,6.48,6.48,0,0,1-.6,4c-.9,1.6-1.8,1.2-3.1,2.8s-1.4,3.7-1.5,5.5c-.1,2-.2,3.3.7,4.2.7.7,1.7.9,3.7,1.2s3.3.6,4.7,0,1.1-1.1,2.4-1.8c1.9-1,3.9-.6,6.3-.2,2.9.5,2.8,1.1,4.8,1.2,1.7,0,2.4-.4,3.9,0,.4.1,2.3.7,2.6,1.9a1.8,1.8,0,0,1-.3,1.2c-.5,1.1-1.2,1.2-1.7,2a3.57,3.57,0,0,0,.2,3.6,2.78,2.78,0,0,0,1.6,1.3,4.4,4.4,0,0,0,2.7-.2c2.8-.7,2.8-1.3,3.6-1.1,1.5.3,1.4,2,3.6,3.2,1.2.6,1.3.2,2.4.7,1.4.8,1.4,1.8,3.6,5.7,1.2,2.1,1.9,3.1,1.9,3.2.8,1,1.4,1.7,1.3,2.6a2.59,2.59,0,0,1-.7,1.5c-.8.9-1.6.7-3.5,1.5a16.88,16.88,0,0,0-3.3,1.9,8.58,8.58,0,0,0-1.9,1.6,4.91,4.91,0,0,0-.6,3.1c.3,1.1.9,1.2,1.1,2.4s-.4,1.4-.1,1.9c.5,1,3.4,1.1,5.2-.2,1.5-1.1.8-2.2,2.2-3.6,1.2-1.2,1.8-.5,5.7-2.2,2.2-1,3.3-1.5,3.8-2.4a2.66,2.66,0,0,1,1.2-1.2,2.7,2.7,0,0,1,1.2-.1,85.21,85.21,0,0,0,12.6.2c1-.1,1.5-.1,2.2-.2a17.26,17.26,0,0,0,6.1-2.5,18.65,18.65,0,0,1,2.8-1.6,6.28,6.28,0,0,1,2.5-.6,4.14,4.14,0,0,1,2.5,1.1c1.3,1,1,1.9,2.2,2.6.2.1,1.3.8,2.1.4s.5-1.3,1.2-2.4a8.22,8.22,0,0,1,2.3-1.8,16.59,16.59,0,0,1,3.8-1.8,5.88,5.88,0,0,1,3.4-.3c1.2.3,1.2.9,2.8,1.7,1,.4,2.4,1.1,3.3.5.7-.5.7-1.6.7-2.4a19.07,19.07,0,0,0-.5-2.6,8.92,8.92,0,0,1,0-3.3,24.9,24.9,0,0,1,1.1-2.6c.6-1.8.2-2.2.7-3.9a15.28,15.28,0,0,1,2-3.6c1.3-2,1.9-2.9,2.6-3.4,1.8-1.2,4.1-.8,5.8-.5a12.23,12.23,0,0,1,6.8,3.8c1,1.2.9,1.7,1.9,2.2,1.8,1.1,3-.2,5.5.4,1.2.3,2.8,1.5,6,4a12.92,12.92,0,0,1,2.2,1.9c2.3,2.9,1.9,6.8,1.9,7.1-.1,1.3-.3,2.4-.3,2.4-.3,1.8-.6,2.4-.3,3.1a2.61,2.61,0,0,0,1.6,1.1,6.15,6.15,0,0,0,1.1.3C1196.3,321.3,1196.2,322.1,1195.9,323Z" transform="translate(-0.64 -0.37)"/>
<path class="cls-1" d="M69.8,423.6" transform="translate(-0.64 -0.37)"/>
<path class="cls-2" d="M242.4,516.1c-.1.1-.3.1-.4.2-.3.1-.5.1-.8.2C241.7,516.3,242.1,516.2,242.4,516.1Z" transform="translate(-0.64 -0.37)"/>
<path class="cls-1" d="M242.4,516.1c-.1.1-.3.1-.4.2-.3.1-.5.1-.8.2C241.7,516.3,242.1,516.2,242.4,516.1Z" transform="translate(-0.64 -0.37)"/>
<path class="cls-4" d="M309.6,319.5c-.6,1.8-1.2,2-2.1,3.8-1.5,2.9-.4,3.5-1.6,6.1-1.5,3.2-4.1,4.3-3.5,5.6.3.8,1.3.6,1.9,1.7s0,2.7-.2,3.3c-.1.1-1.5,3.6-4.5,3.8a5.91,5.91,0,0,1-3.5-1.2c-1.6-1-1.7-1.7-2.8-2.3s-2.3-.5-5.9.2c-7.1,1.4-7.4,1.4-8.5,1.9-2.8,1.2-4.6,2-5.2,3.8-.8,2.5,2.2,3.7,1.9,7.3-.2,2.2-1.4,2.5-1.9,5.9-.3,2.3.2,2.3-.2,3.5,0,.1-.1.2-.1.4-.9,2.1-2.9,2.3-5.3,5.1-2,2.4-1.2,3-2.8,4.5-1.9,1.7-4.3,2-6.8,2.1a10.28,10.28,0,0,0-1.7.1,19.09,19.09,0,0,1-6.6-.7c-2-.7-3.1-1.5-4.9-1.2a6.12,6.12,0,0,0-3.1,1.7c-1.2,1.1-1.8,2.6-2.3,5.9-.7,3.7-.3,4.4-.7,6.6-1.1,6.6-5.3,7-5.6,12.7-.2,2.8.7,4.2-.5,5.6a5.09,5.09,0,0,1-5.4,1.2c-1.4-.6-1.4-1.5-3-2.1-1.4-.5-1.7,0-3.5-.2-2.9-.4-3.2-2-5.2-1.9s-2.2,1.6-3.8,1.4c-1.3-.2-1.6-1.3-3.3-1.9a5.5,5.5,0,0,0-3.3-.2,10.71,10.71,0,0,1-2.4-3.1,9.6,9.6,0,0,1-.7-5.9,20.4,20.4,0,0,1-4.7-.7c-2.6-.7-3.8-1.7-6.1-1.6a7.69,7.69,0,0,0-2.6.5c-4.4,1.3-7.4,3.9-12.9,7.8a37.84,37.84,0,0,1-3.8,2.6c-5.8,3.7-8.5,3.8-12.2,7.3-1.4,1.3-1.2,1.5-2.4,2.4-3.1,2.3-5,1.3-7.5,3.5-1.2,1.1-1.4,1.9-2.8,2.6-1.1.5-1.8.2-2.8.9,0,0-2.2,2-2.6,2.4-5,4.6-5.4,8-8.2,8-1.4,0-3.1-.7-5.9,0-1.6.4-1.5.7-3.1,1.2-3,.8-4.2-.2-8.7.2-2.8.3-3.3.8-3.5,1.2-.5,1.1,1.2,2.5.7,3.3s-2.6.3-4-.2-1.6-1.2-2.8-1.6a6.19,6.19,0,0,0-3.5-.2c-5,.7-14-5.3-23.5-7.1-3.9-.7-5.9-1.1-7.1-.9a7.12,7.12,0,0,1-3.8-.2c-1.2-.6-1.4-1.4-2.6-1.9a4.89,4.89,0,0,0-3.1-.2c-.9.1-1.6.1-10.1-1.4-12.1-2.2-11.4-2.2-13.4-2.4-3.2-.3-3.2,0-10.1-.2-1.6-.1-3.1-.1-4.3-.2a2.5,2.5,0,0,0-.1-1.7c-.7-1.4-2.6-1.7-3.6-1.9-8.2-1.5-8.4-5.1-14.7-5.4h0c-1.1,0-3.4,0-4.6-1.5a4,4,0,0,1-.7-1.6,4.39,4.39,0,0,1,.9-2.7c2.4-3.2,2.7-7.5,4-11.2a135.27,135.27,0,0,0,4.6-16.8,8.87,8.87,0,0,0,3.5-.3c4.5-1.3,7.9-6.1,8.1-10.9.2-5.7-4.1-11.2-10.6-12.7l6-31.8a9.62,9.62,0,0,1,3.2-2.5c2.7-1.3,4.2-.3,6.4-1.1,4-1.3,6.9-7.1,5.6-10.6-.7-1.9-2.2-1.7-2.8-3.9a7.26,7.26,0,0,1,2.1-7.1,7.58,7.58,0,0,1,3.9-1.8,7.31,7.31,0,0,1,2.8-5.6,7.4,7.4,0,0,1,5.3-1.4c2.8,2.8,6.8,6.7,11.6,11.7,3.8,3.9,6.6,6.9,7.1,11.3.2,1.8-.2,1.7,0,3.5A14.75,14.75,0,0,0,70.5,323c1.4.8,3.1,1.7,4.9,1.1a5.29,5.29,0,0,0,2.8-2.8,5.53,5.53,0,0,0,4.2-.3c.8-.5,1-.9,1.9-1.5,1.5-1.1,2.6-1,3.9-1.4a8.2,8.2,0,0,0,4.9-7.1,7.56,7.56,0,0,0-1.8-4.4c-1.3-2.1-2.5-5.4-4.7-12.2-1.2-3.6-2.4-9.4-1.3-17.7,2.3.2,4.5.3,6.8.5a15.9,15.9,0,0,0,6.6-5.4c1.5-2.2,1.8-4.1,4-5.4,1.1-.7,2.2-.8,4-1.2,3.5-.6,4.6,0,5.7-.9,1.3-1.1,1.2-3.5.7-4.9-.5-1.7-1.6-2-2.1-3.1-.8-1.5-.6-4.1,3.3-9.2,4.5.1,9.1.2,13.6.2,2.4-2.5,4.9-5,7.3-7.5a16.73,16.73,0,0,0,5.6-.5,17.52,17.52,0,0,0,7.1-3.8c.5-2.1.9-4.2,1.4-6.4,1.9-.7,3.8-1.4,5.6-2.1.5-3.3,1.1-6.6,1.7-9.9,1.8.1,3.6.2,5.4.2-.8,1.2-1,2.4-.5,3.1.7.9,2.9.5,3.8-.5,1.3-1.5.1-5-2.8-8.9,0-.1.4-2.1,1.9-2.6s2.7.7,3.1.9c1.8,1.5,1.3,3.3,2.8,4.5.5.4,1.1.6,3.3.7,5.2.2,6.2-.9,9.2-.2,1.1.2,4,.8,4.9,3.1.6,1.3.5,3.3-.5,4-1.3.9-3.1-.9-4.2,0-.9.7-.8,2.6,0,3.8,1,1.6,3.1,1.8,3.8,1.9,2.1.2,2.9-.6,7.5-1.4,1.1-.2,2-.3,2.6.2.9.8.2,2.3.9,2.8,1,.7,3.6-.5,4.7-2.6a14.34,14.34,0,0,0,.5-2.8c.2-2.1.1-2.5.2-3.3.4-3.1,3.4-6.2,5.4-5.9.8.1.7.6,2.1,1.4.7.4,2.8,1.6,4.2.9,1.1-.5.9-1.7,1.9-3.3,1.9-3.1,6.3-4.7,8-3.5.6.5.5,1,1.2,3.3a46.82,46.82,0,0,0,1.9,4.5c2.1,5.2.8,6.9,2.8,8.9a6.39,6.39,0,0,0,4.2,1.9c2.4,0,3-1.8,5.4-1.6,1.7.1,1.6,1.1,4,1.6a11.9,11.9,0,0,0,5.9-.2c1.5-.5,1.7-1,3.1-1.2a6.84,6.84,0,0,1,3.8.5c4.2,1.3,4.8-.8,7.8.2,2.6.9,5.6,3.6,6.3,5.2a2,2,0,0,0,1.1,1.2c.7.3,1.2-.1,1.7.2s.4,1.4,0,2.1-.8.7-1.2,1.2c-1.1,1.5.5,5.8,3.8,7.4a8.93,8.93,0,0,0,2.6.7,12.71,12.71,0,0,0,3.3.1,11.94,11.94,0,0,1,3.3-.3c3.7.4,6.8,4.3,7.9,7.5.6,2-.1,2.1.7,4.5.1.4,2.1,6.1,5.9,6.7,1,.2,1.1-.2,2.4,0,1.9.3,4.2,1.6,4.6,3.4.2,1-.2,1.5-1.1,3.5a26.17,26.17,0,0,0-2.1,7.1c-.3,2.3-.5,4.4.8,6.2a5.73,5.73,0,0,0,3.8,2.2,15.43,15.43,0,0,1-.5,1.7c-1.1,2.7-1.7,2.5-2.6,5.3-.7,2.3-.5,2.9-1.1,8.9-.5,5.7-.9,6.8,0,8.5a9.81,9.81,0,0,0,3.1,3.5c1.2.7,1.8.6,2.3,1.4C310.7,316.4,310,318.5,309.6,319.5Z" transform="translate(-0.64 -0.37)"/>
<path class="cls-4" d="M382.8,544l-.3,7.2h-1.9c-2.7,0-3.6.2-5.8.3a13,13,0,0,1-3.4-.2c-1.7-.5-2.1-1.5-4.1-2.8a26,26,0,0,0-4.1-2c-1.5-.7-3.6-1.5-6.2-2.4-.7-6.6-1.8-8.3-2.8-8.5l-1.2-.2c-2-.3-2.9-.4-3-.4-1.4-.4-2.1-1.7-3.2-3.6a13,13,0,0,1-1.4-3.3h-1.7c-2,2.4-3.9,4.9-5.9,7.3-4.5,0-9-.1-13.5-.1-.4.2-.9.5-1.3.7-1.7,0-3.5.1-5.2.1a13.44,13.44,0,0,1-1.1,1.4c-1.7,0-3.4.1-5.1.1-2.3.1-4.6.1-6.9.1a3.5,3.5,0,0,0-1.5-.9c-.4-.2-.8-.2-2.9-.2-1.4,0-1.7,0-2.1-.2-.7-.3-.6-.7-1.3-.9a4,4,0,0,0-2.9,0c-1.2.4-1,.7-2,.9s-1.5,0-2.7.2a3.75,3.75,0,0,0-1.4.5c-.1.4-1.4,7.7-4.9,12.1a27.79,27.79,0,0,1-4.2,4.2c-.7.6-.6.4-1.8,1.3s-1.5,1.2-2,1.2c-.2,0-.3-.1-1.4-.8-.4-.2-.7-.5-1.1-.7-4,0-7.9.1-11.9.1-.4-.1-1-.3-1.8-.5-1.3-.3-2.2-.6-2.2-.6a64.21,64.21,0,0,0-7.1-.8A13.09,13.09,0,0,1,243,550a29.07,29.07,0,0,1,2.7-7.3c1.8-3.3,4.2-5.6,3.3-7.1-.6-1-2.2-.8-2.4-1.6s.9-1.2,1.9-2.6a7.84,7.84,0,0,0,1.4-5.4c-.2-1.1-.8-3.1-1.9-3.3s-1,2.5-3.3,4.2c-.9.7-2.2,1.3-2.6.9s1.8-2.7,3.1-6.3a16.07,16.07,0,0,0,.9-6.1c-.1-1.6-.4-2.6-.7-2.6-.5-.1-.8,2.6-2.7,3.6h0c-.4.1-.8.2-1.1.3h0a4.3,4.3,0,0,1-2-.4c-2.5-1.2-1.9-3.9-4.2-6.6s-6.3-3.8-7.8-2.6c-1.1.9-.1,2.5-1.4,4-1.5,1.7-4.5,1.2-4.9,1.2-2.3-.3-3.3-1.6-5.4-3.1-4.6-3.3-10.6-5-11.8-3.5-.2.2,0,.2,0,2.6v4.2c-.8.5-1.9,1.1-2.8.7-2.1-1-.5-6.8-2.6-7.8-1.3-.6-2.7,1.3-3.8.7-1.6-.9,1-5.5-1.2-8-.6-.7-1.6-1-3.8-1.6-3.1-1-4.7-1.5-6.4-.9-2.5.8-2.4,3-5.2,3.8-.9.3-.9,0-4.2,0s-5,0-5.9.5c-2.2,1.2-1.8,3.3-3.8,3.8-1.5.4-2.4-.7-4,0a4,4,0,0,0-1.9,1.6c-.9,1.8.4,3.6-.2,4-.9.7-3.7-3.1-5.9-2.4-1.2.4-1.1,1.6-2.6,2.1s-2.3-.3-2.8.2.2,1.6-.2,3.3c-.3,1.2-1.2,2.4-1.9,2.3-.9-.1-.8-2.6-1.9-2.8s-2.2,1.7-2.8,2.8c-1.8,2.9-1.3,4-2.6,4.9-1.8,1.3-3.4-.4-4.7.7-1.9,1.7,1.1,6.3-1.2,8.5-.8.8-2.1,1-2.6,2.3a7.58,7.58,0,0,0-.3,1.6,6.66,6.66,0,0,0,.3,2.7c.4,1.8.9,4.3.2,4.7-.2.1-1,.3-3.8-2.8,1.4-2.1,1.6-4.1.7-5.1a2.13,2.13,0,0,0-2.1-.5c-.6.4-.3,1.2-.6,2.5-.3,1.1-1.2,2.8-2.3,3.2-2.2.6-4.5-3.7-6.1-3.1-1.1.4-.4,2.3-1.8,3.4-1.7,1.3-5.2.5-6.7-1.5-1-1.4-.6-2.7-.9-4.1-.9-4-6.4-6.8-10.7-7.4-2.3-.3-3.6.1-5.2-1.1-1.8-1.3-.9-3.4-2.5-4.2-.6-.3-.8-.1-5.1-.1a2.39,2.39,0,0,1-1.9-.5c-.6-.6-.5-1.4-.7-2.4-.5-2.9-2.3-3.2-2.2-5.2a5.46,5.46,0,0,1,1.8-3.1c.3-.3,2.5-2.6,4.6-2a3,3,0,0,1,1.5,1.1c.8.8.8,1.4,1.5,2.1a6.67,6.67,0,0,0,1.9,1.2c.4.2,4.5,1.8,6.9-.3a8.26,8.26,0,0,0,1.7-2.7,3.66,3.66,0,0,0,.2-1.6,4.14,4.14,0,0,0-1.1-2.5c-1.3-1.6-8.8-12.4-11.8-20.1-2.5-6.3-1.5-9.4-5.2-13.3-1.5-1.6-2.1-1.6-3.9-3.6a34.38,34.38,0,0,1-5.5-10c-2-4.7-1.6-5-2.8-6.5-2.6-3-6.3-3.9-8-4.4a26.05,26.05,0,0,0-7.8-.5c-5.2.2-6.1,1.3-8,.2s-2.2-2.7-4.9-3.7c-.8-.3-1.7-.6-2.3-.1-.2.1-.7.6-.5,4.2.1,1.9.2,2.3-.1,2.7-.7.6-2.2.1-3.8-.5a18.08,18.08,0,0,1-3.2-1.6,8.49,8.49,0,0,1-2.5-2.5,5,5,0,0,1-.7-2c-.5-2.4.3-3.4,0-5.9-.1-.9-.3-.8-.6-2.2s-.4-2.7-.5-3.4c-.3-3.7.1-7.2.1-12.2,0-.3.1-.6.1-1,1.3.1,2.7.1,4.3.2,7,.2,6.9,0,10.1.2,2,.2,1.3.2,13.4,2.4,8.5,1.5,9.2,1.5,10.1,1.4a5.75,5.75,0,0,1,3.1.2c1.2.5,1.4,1.3,2.6,1.9s2.5.4,3.8.2,3.2.2,7.1.9c9.5,1.7,18.5,7.7,23.5,7.1a7.3,7.3,0,0,1,3.5.2c1.3.5,1.4,1,2.8,1.6s3.5,1,4,.2-1.2-2.2-.7-3.3c.2-.4.7-.9,3.5-1.2,4.5-.4,5.7.6,8.7-.2,1.5-.4,1.4-.8,3.1-1.2,2.8-.7,4.5,0,5.9,0,2.8,0,3.2-3.4,8.2-8,.4-.3,2.6-2.4,2.6-2.4,1-.8,1.7-.4,2.8-.9,1.5-.7,1.6-1.5,2.8-2.6,2.5-2.3,4.4-1.2,7.5-3.5,1.1-.8.9-1,2.4-2.4,3.7-3.5,6.4-3.6,12.2-7.3.8-.5,1.8-1.2,3.8-2.6,5.5-3.9,8.5-6.4,12.9-7.8a7.69,7.69,0,0,1,2.6-.5c2.3-.1,3.6.9,6.1,1.6a16.05,16.05,0,0,0,4.7.7,9.6,9.6,0,0,0,.7,5.9A9.23,9.23,0,0,0,205,401a6.42,6.42,0,0,1,3.3.2c1.7.6,2,1.7,3.3,1.9,1.6.2,1.9-1.3,3.8-1.4s2.3,1.4,5.2,1.9c1.8.3,2.1-.3,3.5.2,1.7.6,1.6,1.6,3,2.1a5,5,0,0,0,5.4-1.2c1.2-1.4.3-2.9.5-5.6.3-5.7,4.5-6.1,5.6-12.7.4-2.1.1-2.9.7-6.6.6-3.3,1.2-4.7,2.3-5.9a5.68,5.68,0,0,1,3.1-1.7c1.8-.3,2.9.5,4.9,1.2a19.09,19.09,0,0,0,6.6.7,9.7,9.7,0,0,0,1.7-.1c2.5-.1,4.9-.4,6.8-2.1,1.7-1.5.8-2.1,2.8-4.5,2.4-2.8,4.4-2.9,5.3-5.1,3.3,1.3,3.6,1.4,3.6,1.4,2.3,1.2,4.2,2.7,6.2,2.6a11.37,11.37,0,0,1,2.5.1,3.69,3.69,0,0,1,1.7.4c.1.1.3.3.6,1.7.2.9.1,1,.3,2.5.1.7.2,1.1.3,1.8a8,8,0,0,1,.1,1.1c.1,1.6-.3,11.3.3,15.2a1.7,1.7,0,0,0,.6,1.3c.8.7,1.9.3,3.1.2,2.4,0,2.6,1.9,7.3,4,1.9.9,2.2.7,3.5,1.5s1.8,1.4,2.9,1.5a3.15,3.15,0,0,0,2.2-.6c.2-.2.5-.4,1.5-2.8a17.27,17.27,0,0,0,.8-2.1c.5-1.9,0-2.5.6-3.2a3.34,3.34,0,0,1,2.5-.6,2.85,2.85,0,0,1,2,1.1c.8.9.3,1.6.9,2.2s1,.2,3.3.5c2.1.2,2.5.5,2.8.7a3.53,3.53,0,0,1,1.1,1.8c0,3.4.1,6.8.1,10.2-.2.6-.5,1.1-.7,1.6a3.08,3.08,0,0,0-.8,1.2c-.7,1.7.3,2.9,0,5.1a7.89,7.89,0,0,1-.7,2.3c.9,1.1,1.9,2.1,2.8,3.2-.1,3.1-.1,6.2-.2,9.3a15.52,15.52,0,0,1,2.5,4.2,15.78,15.78,0,0,0,.9,2.6,10.66,10.66,0,0,0,2.8,3.5c.1,8.7-.2,15.7-.5,20.7-.2,3.9-.4,6-.7,8.1-.5,3.1-1.3,6.8-2.5,13.4a14.75,14.75,0,0,0-.2,5.2,13.72,13.72,0,0,0,2.4,5.4c4.9,7.2,3.7,8.3,9.9,16.9,2.3,3.2,3.4,4.8,4.6,5.9,2.5,2.4,6.3,4,13.6,7.1,2.8,1.2,11.8,4.9,14.5,5.1a6.67,6.67,0,0,1,2.3.6,4.47,4.47,0,0,1,1.4,1.1,68.07,68.07,0,0,0,1.9,6.8c1,3.3,1.4,4.1,2.2,4.9a19.84,19.84,0,0,1,1.9,2C382.1,542.8,382.5,543.5,382.8,544Z" transform="translate(-0.64 -0.37)"/><path class="cls-4" d="M393.6,610l-27.3,9v5.8q-.15,107.1-.2,214.3a6.43,6.43,0,0,0-4.5.2c-1.7.9-1.8,2.4-3.5,3.3-.8.4-1.5.5-4.7.2-4.7-.3-7.1-.5-7.8-1.2-1.9-1.8-.6-4.1-2.8-6.1-1.4-1.2-2.3-.7-3.8-1.9-2.3-1.8-2.4-5.1-2.6-6.3-.4-3.3-2.2-8.3-9.2-15.5a8.09,8.09,0,0,1-.7-2.8c-.2-2.1.5-2.9.2-4.2s-1.3-1.5-3.1-3.3c-2.7-2.7-2.3-3.9-4.7-6.4-1.7-1.7-1.9-1.1-4.5-3.1-4.7-3.7-5.1-7-8.9-8a15.54,15.54,0,0,1-2.3-.5c-2.8-1.1-3.3-3.4-4.9-4.9-3.2-3-9.4-1.5-14.6-.2s-5.8,2.6-8.9,2.1c-2.1-.3-4.2-1.3-6.1-.2-1,.5-1,1.1-2.1,1.9a8.45,8.45,0,0,1-4.9,1.4c-6,.3-16.5,11-19.3,13.9a98.72,98.72,0,0,0-10.1,12.2c-2.2,1.7-2.7,1.5-2.8,1.4-.5-.4.8-2.9,1.4-4-.1-2.7-.2-5.5-.2-8.2a14,14,0,0,1-2.1-5,14.45,14.45,0,0,1,.7-8c1.2-3.2,2.3-2.5,4-5.9,2.3-4.4.7-6,3.3-11.5A10.61,10.61,0,0,0,238,765a11.12,11.12,0,0,0-1.7-6.8c-1.3-2.5-2.2-2.5-2.3-4-.3-2.7,2.3-4,1.6-5.4s-3.7-1.8-6.1-.9c-2.6.9-3.1,2.8-4.7,2.6-1.4-.2-2.4-1.9-3.1-3-1.1-1.9-.7-2.7-1.6-3.3-1.6-1.1-4.3.2-4.5.2-2.3,1.1-2.3,2.9-4.2,3.3a3.77,3.77,0,0,1-2.8-.5c-1.8-1-1.5-2.9-2.6-5.9-2.2-5.8-6.5-6.6-6.6-10.8a3.33,3.33,0,0,0-.7-2.4c-.9-.8-2.6-.4-3.3-.2-2.6.6-9.4,1.7-11.3-.2-1.7-1.7,1.4-4.4,1.6-12,0-1.2.2-7.2-2.1-12l-2.1-4.2a17.79,17.79,0,0,1-2.4-2.4,27.47,27.47,0,0,1-5.4-9.9c-1.5-4.7-.3-5.1-1.9-8s-3-3-3.8-5.6c-.8-2.8.4-3.8-.2-6.4-1-4-4.9-6.2-5.6-6.6-5.1-2.8-8,.4-13.2-2.6a11.45,11.45,0,0,1-5.2-5.9c-.4-1.1-.3-2.5-.2-5.2,0,0,.1-2.5,1-8.9a12,12,0,0,1,6.1-2.8,20.24,20.24,0,0,1,9.2,1.4,7.08,7.08,0,0,0,4.2.9c1.6-.2,1.8-1.1,2.8-1.2,2.8-.3,3.9,5,9.2,8,1.3.7,3.8,2.2,5.6,1.2,2.2-1.1,2.1-4.8,2.1-5.9,0-6-4.9-10.3-7.5-11.8a5.73,5.73,0,0,0-2.4-.9c-2.8-.5-4.5,1.4-5.6.7s-.9-3.6-.5-5.4c1.3-5.2,6.7-10.4,11.5-10.1,1,.1,2,.4,2.6-.2,1-1-.7-3.2-.2-6.1.2-1.1.5-1.5,1.9-3.8,3.7-6.3,4.1-8.9,6.1-9.2,1-.1,1,.5,2.4.7,4,.5,5.8-4.8,11.1-5.2a10.37,10.37,0,0,1,2.8.2c2.3.6,2.5,1.8,4.2,2.4s2.4-.4,6.6-1.2a36,36,0,0,1,4.5-.5c5.6-.2,6.8,1.6,8.7.5,2.3-1.4,1.7-4.8,4.2-5.7,1.2-.4,1.8.1,2.6-.5,1.2-.9.5-2.5,1.2-4.9,1-3.5,3.5-3.7,4-7.1.2-1.3-.2-1.4,0-3.3a17.43,17.43,0,0,1,1.4-4.9c1.4-3.8-1-5.2-.7-10.6.1-.9.2-1.8.3-2.6,2.7,2,4.9,2.6,6.5,2.6a66.86,66.86,0,0,1,7.1.8s1,.3,2.2.6c.8.2,1.4.4,1.8.5,4,0,7.9-.1,11.9-.1a10.54,10.54,0,0,0,1.1.7c1.1.7,1.2.8,1.4.8.5.1.8-.3,2-1.2s1.1-.7,1.8-1.3a33.26,33.26,0,0,0,4.2-4.2c3.5-4.4,4.9-11.7,4.9-12.1.3-.1.8-.3,1.4-.5,1.2-.3,1.7,0,2.7-.2s.8-.6,2-.9a4,4,0,0,1,2.9,0c.7.3.6.6,1.3.9a5,5,0,0,0,2.1.2,10,10,0,0,1,2.9.2,8.28,8.28,0,0,1,1.5.9c2.3,0,4.6-.1,6.9-.1,1.7,0,3.4-.1,5.1-.1a13.44,13.44,0,0,1,1.1-1.4c1.7,0,3.5-.1,5.2-.1.4-.2.9-.5,1.3-.7,4.5,0,9,.1,13.5.1,2-2.4,3.9-4.9,5.9-7.3h1.7a13,13,0,0,0,1.4,3.3c1.1,1.9,1.8,3.2,3.2,3.6.1,0,1,.2,3,.4l1.2.2c1,.2,2.2,1.9,2.8,8.5a47.85,47.85,0,0,1,6.2,2.4,31.56,31.56,0,0,1,4.1,2c2,1.4,2.4,2.3,4.1,2.8a13.4,13.4,0,0,0,3.4.2c2.2,0,3.1-.2,5.8-.3h1.9c1.5,1.9,2.5,3.4,2.5,3.4a32.91,32.91,0,0,1,3.9,7.8c.8,3,.3,4.7.7,8.3,1,10.5,1.7,17,2.9,21.6a35.74,35.74,0,0,1,1.1,6.2c.1,1.5.1,2.6.1,3C393.5,604.4,393.6,607.2,393.6,610Z" transform="translate(-0.64 -0.37)"/><path class="cls-4" d="M828.9,687.5c-.1.5-.5.6-.9,1.1s-.9,1-1.8,3.5a25.72,25.72,0,0,0-1.4,4.9c-.3,2.2.2,2.6-.1,5.8,0,.6-.3,3.7-.9,3.8-.4,0-.5-1.3-1.7-2.1-.8-.5-2-.8-2.6-.2-.5.4-.1,1.1,0,3.3v2.6a21.56,21.56,0,0,1-.2,4.7,26.52,26.52,0,0,1-2.4,3c-1.5,1.9-1.7,2.1-1.9,2.6-.4,1.3.1,2.5.7,4,1,2.5,1.8,2.4,2.6,4.7a7.33,7.33,0,0,1,.5,3.8,5.73,5.73,0,0,1-1.2,2.6c-7.9,4.8-14.4,9.3-19.5,12.9-9.3,6.6-16,11.4-19.1,15.1a32.09,32.09,0,0,1-5.6,5.4c-1,.7-1.5,1-2.4,1.7a17.35,17.35,0,0,0-4.9,5.7c-.8.2-1.6.5-2.3.7-1.9,1.7-3.8,3.3-5.7,4.9a22.07,22.07,0,0,0-5.6-1.3c.2-.3.4-.5.6-.8-.2-6.6-.3-13.2-.5-19.8.5-1.2.9-2.3,1.4-3.5-.1-2.7-.1-5.3-.2-8-3.8,1.8-7.5,3.6-11.3,5.4-3.9-9-7.8-18-11.8-27-3.4-2.5-6.8-5-10.1-7.5-4.1-5.8-8.2-11.6-12.2-17.4-5.4,3.5-10.8,6.9-16.2,10.4a113.9,113.9,0,0,1-12.7-.2c-9.4-.7-11.4-2.1-22.1-3.5-6.9-.9-13.4-1.7-21.9-.9a105.76,105.76,0,0,0-11.5,1.9c-8.7,1.8-12.8,3.3-21,4.2-2.8.3-5,.4-6.3.5-10.9-14.4-21.8-28.9-32.7-43.3-5.9-6.1-11.8-12.2-17.6-18.4q-41.25-32.7-82.5-65.3a33.91,33.91,0,0,1,1.1-7.8c1.4-5.5,3-5.5,3.8-10.6.2-1.3.4-3.2,1.9-4.2,1-.7,1.6-.3,3.9-.7a17.83,17.83,0,0,0,6-2.3,12.11,12.11,0,0,0,2.6-2.3c4.5-4.9,9.8-14.9,12.9-20.1a90,90,0,0,1,5.7-8.5,128.79,128.79,0,0,1,19.8-22.1l.9-2.1,9,.2a6.76,6.76,0,0,1,.3-3.3,5.6,5.6,0,0,1,1.1-1.9V489.1a3.35,3.35,0,0,1,1.8-1.4c.3-.1,1.1-.3,3.5.7,2.1.9,2.5,1.4,4.1,1.8a8.22,8.22,0,0,0,2.3.2c4.5,0,6.4-1.4,7.9-.2.6.5.7,1.1,1.4,1.2a2.57,2.57,0,0,0,2.3-1.2,3.75,3.75,0,0,0,.5-2.7c-.4-4,4.8-13.1,10.6-27.7.4-1,1-2.6,1.8-4.6a11,11,0,0,1,2.3-.9,13.84,13.84,0,0,1,3.9-.5c2.2,0,7.8,0,15.4.2a8,8,0,0,1,4,1.6,11,11,0,0,1,2.5,3c1.5,2.8,3.9,7.2,6.9,12.7,1.4-.1,2.8-.1,4.2-.2,3.5,4.5,7.1,8.9,10.6,13.4a20.31,20.31,0,0,0,.3,5.3,6.57,6.57,0,0,0,.9,2.5c.6.8,1.4,1.4,5.1,2.8,1.1.4,2.1.8,2.8,1a12.21,12.21,0,0,1-1.2,1.5c-2.1,2.3-4.4,3.3-4.1,3.9q.15.3,1.8.3a20.15,20.15,0,0,0,3-.2c2.9-.5,3.3-1.1,5.7-1.5,1.8-.3,2.9-.5,4.1-.1,2.3.7,3.8,2.8,4.4,3.5.9,1.2,1,1.8,1.9,2.5s1.5.5,2.8,1.2c1.5.8,1.3,1.3,2.7,2.1s2,.4,4.1,1.2a21.34,21.34,0,0,1,3.2,1.8c2.6,1.5,3.8,2.2,4.4,2.5,2.2.9,2.5.3,6.2,1.2a27.83,27.83,0,0,1,4.4,1.4,26.58,26.58,0,0,1,5.7,3.2c3.8,1.4,7.7,2.8,11.5,4.2,6.5,3.9,12.9,7.9,19.4,11.8,1.2,0,2.9-.1,4.9,0,1.7,0,1.9.1,2.1.2,2.4.9,3.7,4.7,4.1,5.6a4.11,4.11,0,0,0,1.2,2.1,3.43,3.43,0,0,0,1.9.7c2.4,2.5,2.8,2.8,2.8,2.8,1.8,1.4,2.1.8,3.2,1.9,1.2,1.3,1.1,2.3,2.3,2.8.7.3,1,0,1.8.2a5.1,5.1,0,0,1,3,2.6l15,2.1c13.5,0,26.9.1,40.4.1a3.49,3.49,0,0,1,2,1.3c.5.7.4,1.5.4,4.4-.1,2.6,0,3.1.2,3.7a2.18,2.18,0,0,0,.5.8,7.17,7.17,0,0,0,1,4c.7,1.1,1.2,1,2.8,2.8a13.42,13.42,0,0,1,3.2,4.8,8.6,8.6,0,0,1,.3,2.4c0,3.7-2.5,4.5-3.7,8.5-.7,2.7.2,3-.6,7.5-.4,2.2-.7,2.4-.7,3.9,0,1.3.1,2.2-.5,2.9s-1.1.4-1.6.9-.8,1.5,0,4.1l7.8,7.8,4.1.3c0,15.8,0,31.5-.1,47.2a7.57,7.57,0,0,0,1.4,2.2c.4.4,1.9,1.9,8.6,3.9,1.1.3,1.7.5,2.1,1.1.9,1.4-.7,2.8-.2,4.9.5,2.7,3.7,4.4,5.1,5.1,1.9,1,2.7.8,4.3,2.1C827.2,684.4,829.3,686.1,828.9,687.5Z" transform="translate(-0.64 -0.37)"/>
<path class="cls-4" d="M936.3,791.4c-.7-.5-1.4-1-2.2-1.6-.4-.3-1.5-1.1-1.4-2.2,0-.5.3-.6.6-1.4a4,4,0,0,0,.2-2.3,3.89,3.89,0,0,0-2.9-2.1c-1-.2-1.6.1-2-.3s.1-1.1-.2-2.1c-.1-.4-.8-3.1-2.5-3.5-.9-.2-1.3.4-2.3.2s-1.5-.9-2.3-1.9c-2.9-3.8-2.8-4.2-3.9-5.1a19.41,19.41,0,0,0-3.5-1.9c-2.3-1.1-3-1.2-3.4-1.9-.6-1.2.8-2.2,1.1-4.2.3-2.3.9-5.8-.5-9.2-1.3-3.2-2.8-2.3-4.4-6-1.1-2.4-.9-3.9-2.7-6.4a7,7,0,0,0-2.3-2.5c-2-1.2-3.5-.5-7.4-1a16.09,16.09,0,0,1-3.9-.9,12,12,0,0,1-6.5-7.1c-.6-1.9-.1-2.1-.9-4.6-.4-1.3-.9-2.3-.5-3.5a4.59,4.59,0,0,1,1.1-1.6,36.85,36.85,0,0,0,4.1-7.4c.7-1.6.3-1,3.2-9.7a21.32,21.32,0,0,0,.9-3.5,27.33,27.33,0,0,0,.2-4.6c0-3.8-.1-4.2.2-5.5a15,15,0,0,1,1.1-3.3c.9-2,1.7-2.6,2.2-3.9a9.31,9.31,0,0,0,0-5.5c-1-4.3,1,1.3-1.3-12.3-1.1-6.3-3.5-19.5-5.6-27.8a37.12,37.12,0,0,1-1.1-5.3c-.4-3.4.1-3.9-.5-6.1a28.9,28.9,0,0,0-2.3-5.3c-.8-1.4-1.3-2-1.4-3.3s.4-1.7.1-2.9a6.63,6.63,0,0,0-1.5-2.7,16.35,16.35,0,0,0-1.6-1.8,69,69,0,0,0-2.4-10.1,59.28,59.28,0,0,0-2.6-6.9c-.1-2.7-.1-5.4-.2-8.1-.4-.6-1-1.7-1.9-2.9-2.2-3.1-3.7-3.9-5.1-6.4a11.27,11.27,0,0,1-1.4-4.1H827.2c-.4-.4-.9-.8-1.3-1.2H793.8v.3a7.17,7.17,0,0,0,1,4c.7,1.1,1.2,1,2.8,2.8a13.42,13.42,0,0,1,3.2,4.8,8.6,8.6,0,0,1,.3,2.4c0,3.7-2.5,4.5-3.7,8.5-.7,2.7.2,3-.6,7.5-.4,2.2-.7,2.4-.7,3.9,0,1.3.1,2.2-.5,2.9s-1.1.4-1.6.9-.8,1.5,0,4.1l7.8,7.8,4.1.3c0,15.8,0,31.5-.1,47.2a7.57,7.57,0,0,0,1.4,2.2c.4.4,1.9,1.9,8.6,3.9,1.1.3,1.7.5,2.1,1.1.9,1.4-.7,2.8-.2,4.9.5,2.7,3.7,4.4,5.1,5.1,1.9,1,2.7.8,4.3,2.1.4.3,2.5,2,2.1,3.4-.1.5-.5.6-.9,1.1s-.9,1-1.8,3.5a25.72,25.72,0,0,0-1.4,4.9c-.3,2.2.2,2.6-.1,5.8,0,.6-.3,3.7-.9,3.8-.4,0-.5-1.3-1.7-2.1-.8-.5-2-.8-2.6-.2-.5.4-.1,1.1,0,3.3v2.6a21.56,21.56,0,0,1-.2,4.7,26.52,26.52,0,0,1-2.4,3c-1.5,1.9-1.7,2.1-1.9,2.6-.4,1.3.1,2.5.7,4,1,2.5,1.8,2.4,2.6,4.7a7.33,7.33,0,0,1,.5,3.8,5.73,5.73,0,0,1-1.2,2.6c-7.9,4.8-14.4,9.3-19.5,12.9-9.3,6.6-16,11.4-19.1,15.1a32.09,32.09,0,0,1-5.6,5.4c-1,.7-1.5,1-2.4,1.7a17.35,17.35,0,0,0-4.9,5.7c-.8.2-1.6.5-2.3.7-1.9,1.7-3.8,3.3-5.7,4.9a22.07,22.07,0,0,0-5.6-1.3c-.5.7-1,1.3-1.5,2l-.3,23.7h18.9a58.77,58.77,0,0,0,0,9.5c.2,2.7.6,5.5,1.1,8.4,2,11.7,5.8,24.3,5.6,27.2a11.29,11.29,0,0,0,0,2.6,10.31,10.31,0,0,0,.3,2.5c.8,1.5,2.9,1.7,3.7,1.8l26.6.3a24,24,0,0,0,2.3-1.1c4.6-.1,9.3-.1,13.9-.2a4.94,4.94,0,0,1,2.3,2.3c.3.6.3,1.1.5,4.1.2,2.2.2,2.5.5,2.8.9.8,2.3-.5,3.5.2,1.4.7,1.8,3.4.9,4.4-.7.8-1.7.3-2.3,1.1s.3,2.1-.3,3.2c-.8,1.2-2.7.6-3.2,1.6s1.5,3.3,2.1,3.9c4.4,4.5,7.6,3.7,11.3,7.8,1.6,1.7,1.4,2.3,3.1,3.8a10.05,10.05,0,0,0,7.1,2.8c.5,0,3.9-.2,4.7-2.1.3-.7.2-1.3-.7-3.8-1.7-4.8-2.2-4.8-2.3-6.4-.3-2.6.9-2.6.9-6.1,0-3-.9-4.4,0-5.4s2.3,0,3.5-.9c1.8-1.3,0-4,1.7-6.8,1.5-2.5,5.1-3.8,7.3-4.5,1.7-.6,2.3-.5,2.8-1.2,1.2-1.5,0-3.4.2-7.3a12,12,0,0,1,.7-4.2,11.11,11.11,0,0,1,7.8-6.6c2.4-.5,2.9.5,4.7-.2,2.4-1,2.4-3.1,4.9-6.4a17,17,0,0,1,8-5.9c3.5-1.1,4,.4,7.5-.7a15.44,15.44,0,0,0,8.2-6.4c1.4-2.1,1.1-2.9,3.5-7.1a29.51,29.51,0,0,1,2.6-4l.1-.1c.8-1,4.8-6.4,6.5-5.6,1.2.5,0,3.6,1.6,4.7,1.1.8,3.1.1,4.2-.7,3.6-2.4,1.6-7,4.9-9.6,2.9-2.3,7-1,7.3-2.4S936.6,793.4,936.3,791.4Zm-44.1,1.9c-.4.3-.8.3-5-.1-2.2-.2-2.8-.3-3.4.1-1,.7-.8,2-1.8,2.4a2.32,2.32,0,0,1-1.8-.4,3.78,3.78,0,0,1-1.9-1.8c-.5-1.1-.1-2.4.8-4.8a13.84,13.84,0,0,1,1.7-3.8,10.05,10.05,0,0,1,4.3-3.4c1.5-.6,3-1.2,4.4-.6a4.73,4.73,0,0,1,2.3,3.5c.2,1.7-.8,2.9-.1,3.7.4.5.9.2,1.3.7C893.8,789.7,893.5,792.4,892.2,793.3Z" transform="translate(-0.64 -0.37)"/>
<path class="cls-4" d="M1123.8,758.7c0,.1-.1.1-.1.2-.8,1.3-.3,2.4-1,4-.5,1.2-1.6,3.2-2.9,3.2s-1.5-1.7-3.5-2.6c-1.1-.5-1.8-.3-3.5-.2a48.17,48.17,0,0,1-7.1-.2c-2.3-.3-3.9-1.1-7.1-2.8-5.6-3-6.8-5.3-11.3-6.4-1.3-.3-2.1.1-3.3-.5a8.42,8.42,0,0,1-4.2-5.4c-.3-1.2-.1-1.8-.7-2.3-.9-.8-1.9-.1-3.5-.7s-1.4-1.4-3.8-3.1a7.4,7.4,0,0,0-3.5-1.6c-1.5-.2-1.9.4-4,.9-3.2.7-4-.3-6.6.5-1.5.4-1.6.9-3.8,2.1a103.19,103.19,0,0,1-12.7,5.4c-.6.2-1.8.7-2.1,1.6s.6,1.5.7,2.8-.8,1.9-1.4,3.5c-1.1,2.8.5,4-.2,7.1-.4,1.9-1.2,1.9-2.3,4.2-.2.4-3.3,6.8-.9,12.7,1.3,3.1,3.4,4.4,2.8,5.4-.7,1.3-3.9,1.6-5.6.2-1.2-.9-.9-1.9-2.6-4.2a8.77,8.77,0,0,0-2.1-2.3c-2.1-1.7-5.6-3-8.2-1.7-1.1.6-1.1,1.1-2.1,1.4a5.63,5.63,0,0,1-5.4-2.1c-1.6-1.9-.9-3.7-2.6-4.9a4.63,4.63,0,0,0-2.8-.7c-5.7-.3-7.3-5.3-15.3-7.3-2.3-.6-2.1-.1-5.7-.9-4.2-.9-4.8-1.6-8.5-2.3-4.1-.8-6.2-1.3-8.2-.2s-2.1,2.6-4.2,3.1c-1.4.3-1.8-.2-4.9-.7s-4.7-.8-6.1-.2c-2.4,1-3.8,3.5-4.5,4.9-1.3,2.5-.9,3.7-2.3,4.9s-2.3.6-3.5,1.6c-.9.8-1,1.5-1.9,4.9-1.6,6.3-1.8,7-2.4,7.8-1.3,1.9-2.3,2.1-2.4,3.3v.4c-.7-.5-1.4-1-2.2-1.6-.4-.3-1.5-1.1-1.4-2.2,0-.5.3-.6.6-1.4a4,4,0,0,0,.2-2.3,3.89,3.89,0,0,0-2.9-2.1c-1-.2-1.6.1-2-.3s.1-1.1-.2-2.1c-.1-.4-.8-3.1-2.5-3.5-.9-.2-1.3.4-2.3.2s-1.5-.9-2.3-1.9c-2.9-3.8-2.8-4.2-3.9-5.1a19.41,19.41,0,0,0-3.5-1.9c-2.3-1.1-3-1.2-3.4-1.9-.6-1.2.8-2.2,1.1-4.2.3-2.3.9-5.8-.5-9.2-1.3-3.2-2.8-2.3-4.4-6-1.1-2.4-.9-3.9-2.7-6.4a7,7,0,0,0-2.3-2.5c-2-1.2-3.5-.5-7.4-1a16.09,16.09,0,0,1-3.9-.9,12,12,0,0,1-6.5-7.1c-.6-1.9-.1-2.1-.9-4.6-.4-1.3-.9-2.3-.5-3.5a4.59,4.59,0,0,1,1.1-1.6,36.85,36.85,0,0,0,4.1-7.4c.7-1.6.3-1,3.2-9.7a21.32,21.32,0,0,0,.9-3.5,27.33,27.33,0,0,0,.2-4.6c0-3.8-.1-4.2.2-5.5a15,15,0,0,1,1.1-3.3c.9-2,1.7-2.6,2.2-3.9a9.31,9.31,0,0,0,0-5.5c-1-4.3,1,1.3-1.3-12.3-1.1-6.3-3.5-19.5-5.6-27.8a37.12,37.12,0,0,1-1.1-5.3c-.4-3.4.1-3.9-.5-6.1a28.9,28.9,0,0,0-2.3-5.3c-.8-1.4-1.3-2-1.4-3.3s.4-1.7.1-2.9a6.63,6.63,0,0,0-1.5-2.7,16.35,16.35,0,0,0-1.6-1.8,69,69,0,0,0-2.4-10.1,59.28,59.28,0,0,0-2.6-6.9c-.1-2.7-.1-5.4-.2-8.1-.4-.6-1-1.7-1.9-2.9-2.2-3.1-3.7-3.9-5.1-6.4a11.27,11.27,0,0,1-1.4-4.1q86.4,1.35,172.7,2.6c.7.4,1.3.8,1.9,1.1h15.2a17.71,17.71,0,0,1-.6,3.4,26.46,26.46,0,0,1-1.5,3.9c-.5,1.3-.8,1.7-1.2,2.8a24.42,24.42,0,0,0-1.1,3.5c-.6,2.4-.5,4.8.3,14.9a27.38,27.38,0,0,0,.6,4.8,44.45,44.45,0,0,0,1.4,4.9c.6,1.9,1.2,3.4,1.3,3.8,1.4,3.7,1.6,3.4,2.1,5,.7,2.3.6,4.8.3,9.6a17.09,17.09,0,0,1-.4,3.3c-.3,1-.8,1.5-.7,2.5a4.42,4.42,0,0,0,.7,1.9,5.36,5.36,0,0,0,2.3,1.9c1.2.6,1.6.3,2.9.8a11.3,11.3,0,0,1,2.8,1.5,13.94,13.94,0,0,1,3.8,3.9c.4.6.7,1.3,1.5,1.6s1,.1,1.7.2c1.6.3,2.5,2.1,2.8,2.7a5.07,5.07,0,0,1,.6,3.6c-.2.9-.6,1.1-1.1,1.9-1.4,2.5-.2,5.7.1,6.6a12.14,12.14,0,0,0,2.7,4.1,9.46,9.46,0,0,0,3.4,2.7,11.43,11.43,0,0,0,2.7.8c1.3.3,1.5.3,2.2.5a7,7,0,0,1,2.9,1.9c1.2,1,.7.4,5.1,3.3a40.43,40.43,0,0,1,3.6,2.6c1.8,1.6,1.6,2.1,3.2,3.3,1.3,1,2,1,2.9,2.1a11.55,11.55,0,0,1,1.2,2.2,13.27,13.27,0,0,1,.5,5.4c-.2,3.5-.3,5.2-1.1,6.9a4.25,4.25,0,0,0-.5,2.5c.1.8.4,1,.5,1.8a5,5,0,0,1-.4,2.7,11.51,11.51,0,0,1-2.6,4.1,19.36,19.36,0,0,1-2.7,2.1,14.86,14.86,0,0,0-2.7,1.9c-.6.7-1.6,1.7-1.4,2.8.1.5.4.8,1.6,1.8a18.69,18.69,0,0,0,3.2,2.3c2,1,2.4.5,5.3,1.4,2.2.7,3.3,1.1,4.1,2.1a5.66,5.66,0,0,1,.5,5.6c-.7,1.8-1.6,1.6-2.7,3.7a11.07,11.07,0,0,0-.9,4.6,13.54,13.54,0,0,0,.9,3.9c.9,3.2,1.4,4.8,2.1,5.5,1.7,1.7,3.2.6,4.8,2.5.9,1.1.5,1.5,2.1,4.2a11.38,11.38,0,0,0,1.8,2.5,9.24,9.24,0,0,0,3.3,2.1A9.51,9.51,0,0,1,1123.8,758.7Z" transform="translate(-0.64 -0.37)"/>
<path class="cls-4" d="M681.4,452.6a3.49,3.49,0,0,1-1.1,1.1,167,167,0,0,1-12.5,11.6c-2.9,2.4-12,9.7-18.9,13.2-2.1,1.1-3.6,1.6-5.3,3.3-1.2,1.3-2.1,2.8-4.2,4.1a14.32,14.32,0,0,1-1.9.9c-3.2,2.9-6.4,5.8-9.5,8.7h-.1c-.7-.2-1.6-.6-2.8-1-3.7-1.5-4.5-2-5.1-2.8a6.57,6.57,0,0,1-.9-2.5,14.22,14.22,0,0,1-.3-5.3c-3.5-4.5-7.1-8.9-10.6-13.4-1.4.1-2.8.1-4.2.2-3-5.5-5.4-9.9-6.9-12.7a8.16,8.16,0,0,0-2.5-3,8.68,8.68,0,0,0-4-1.6c-7.5-.2-13.1-.2-15.4-.2a13.84,13.84,0,0,0-3.9.5,11,11,0,0,0-2.3.9c-.8,2-1.4,3.6-1.8,4.6-5.8,14.6-11,23.7-10.6,27.7a4.46,4.46,0,0,1-.5,2.7,2.47,2.47,0,0,1-2.3,1.2c-.7-.1-.8-.7-1.4-1.2-1.5-1.2-3.4.2-7.9.2a8.22,8.22,0,0,1-2.3-.2c-1.6-.3-1.9-.9-4.1-1.8-2.4-1-3.3-.8-3.5-.7a3.79,3.79,0,0,0-1.8,1.4v12.7a7.94,7.94,0,0,0-1.1,1.9,6.82,6.82,0,0,0-.3,3.3l-9-.2-.9,2.1a128.79,128.79,0,0,0-19.8,22.1c-2.6,3.7-3.9,5.6-5.7,8.5-3.1,5.3-8.4,15.3-12.9,20.1a15.14,15.14,0,0,1-2.6,2.3,17.83,17.83,0,0,1-6,2.3c-2.4.4-3,0-3.9.7-1.5,1-1.7,3-1.9,4.2-.8,5.1-2.3,5.1-3.8,10.6a33.91,33.91,0,0,0-1.1,7.8l-.1-.1c-13.5,4.4-27,8.9-40.5,13.3-9.9,3.2-19.7,6.5-29.6,9.7-.1-2.8-.2-5.6-.1-8.5,0-.4,0-1.5-.1-3a27.76,27.76,0,0,0-1.1-6.2c-1.2-4.6-1.9-11.1-2.9-21.6-.4-3.6.1-5.3-.7-8.3a29,29,0,0,0-3.9-7.8s-1-1.5-2.5-3.4l.3-7.2a13,13,0,0,0-1.3-1.9,12.64,12.64,0,0,0-1.9-2c-.8-.8-1.2-1.6-2.2-4.9-.6-1.8-1.2-4.1-1.9-6.8a6.15,6.15,0,0,0-1.4-1.1,4.86,4.86,0,0,0-2.3-.6c-2.7-.2-11.7-4-14.5-5.1-7.3-3.1-11.1-4.7-13.6-7.1-1.2-1.1-2.3-2.7-4.6-5.9-6.2-8.7-5-9.7-9.9-16.9a13.72,13.72,0,0,1-2.4-5.4,12.73,12.73,0,0,1,.2-5.2c1.2-6.6,2-10.4,2.5-13.4.3-2.2.5-4.2.7-8.1.3-5,.6-11.9.5-20.7a9.53,9.53,0,0,1-2.8-3.5c-.4-1-.5-1.5-.9-2.6a13,13,0,0,0-2.5-4.2c.1-3.1.1-6.2.2-9.3-.9-1.1-1.9-2.1-2.8-3.2a7.89,7.89,0,0,0,.7-2.3c.3-2.2-.7-3.4,0-5.1a4.82,4.82,0,0,1,.8-1.2c.2-.6.5-1.1.7-1.6,0-3.4-.1-6.8-.1-10.2a3.25,3.25,0,0,0-1.1-1.8c-.3-.2-.8-.5-2.8-.7-2.3-.2-2.8,0-3.3-.5-.7-.6-.2-1.3-.9-2.2a4.44,4.44,0,0,0-2-1.1c-.2,0-1.7-.3-2.5.6-.6.7-.1,1.3-.6,3.2a12.58,12.58,0,0,1-.8,2.1c-1,2.4-1.3,2.7-1.5,2.8a3.35,3.35,0,0,1-2.2.6c-1.1-.1-1.7-.8-2.9-1.5a20.25,20.25,0,0,0-3.5-1.5c-4.7-2.1-4.8-4-7.3-4-1.2,0-2.3.5-3.1-.2a1.7,1.7,0,0,1-.6-1.3c-.6-3.9-.2-13.6-.3-15.2a6.27,6.27,0,0,0-.1-1.1,13.49,13.49,0,0,0-.3-1.8c-.2-1.4-.1-1.5-.3-2.5-.3-1.3-.5-1.6-.6-1.7-.3-.3-.7-.4-1.7-.4a24.51,24.51,0,0,0-2.5-.1c-2,.1-3.9-1.3-6.2-2.6a34.32,34.32,0,0,0-3.6-1.4c0-.1.1-.2.1-.4.4-1.3-.1-1.3.2-3.5.5-3.4,1.7-3.7,1.9-5.9.4-3.6-2.7-4.8-1.9-7.3.5-1.8,2.4-2.6,5.2-3.8,1-.4,1.3-.5,8.5-1.9,3.5-.7,4.6-.9,5.9-.2,1.1.6,1.2,1.4,2.8,2.3a5.91,5.91,0,0,0,3.5,1.2c2.9-.2,4.4-3.6,4.5-3.8a3.67,3.67,0,0,0,.2-3.3c-.6-1.1-1.6-.9-1.9-1.7-.5-1.3,2-2.5,3.5-5.6,1.3-2.6.2-3.2,1.6-6.1.9-1.8,1.5-2,2.1-3.8.3-1,1-3.1,0-4.5-.6-.8-1.2-.7-2.3-1.4a9.81,9.81,0,0,1-3.1-3.5c-.9-1.7-.5-2.7,0-8.5.6-6,.3-6.7,1.1-8.9.9-2.8,1.5-2.6,2.6-5.3a15.43,15.43,0,0,0,.5-1.7,4.05,4.05,0,0,0,1.1,0c3-.2,5.5-2.7,5.4-4.8,0-1.9-2.2-2.6-2.5-5.6a8.13,8.13,0,0,1,.1-2.1c.7-5.8,1-8.8,0-9.9-1.2-1.4-2.9-.5-3.9-2.1a4.73,4.73,0,0,1,.3-4.6c.8-1.2,2.5-2.4,3.9-2.1,1.1.2,1.2,1.1,3.1,2.1a12.58,12.58,0,0,0,2.1.8c4.6,1.4,17.4,16,20.4,20.9a1.52,1.52,0,0,0,1,.9c1.1.2,1.6-1.4,3.6-2a3.07,3.07,0,0,1,1.9,0c.9.5,1,1.8,1.2,2.6.6,2.8,3.5,5.8,5.7,5.8,1.9,0,3.4-2.5,6.7-5.1a4.65,4.65,0,0,1,1.6-.8,6.37,6.37,0,0,1,2,0c2.3.4,6.3-2.3,6.7-5.2.3-1.8-1-2.8-.2-4.5.5-.9,1-.9,1.3-1.9.4-1.4-.5-2-.1-3.2s1.8-2.3,2.7-2c.7.2.6,1,1.3,1.7,1.2,1.1,3.6.7,5.2-.2s3.2-3.2,2.7-4.8c-.3-1.2-1.3-1.2-1.4-2.2-.1-1.6,2.4-3.6,3.8-3.1.4.1.5.4,1.3,1.8,1.8,3.3,2.1,3.6,2.6,3.9,1.3.7,3.3.2,3.8-.8.5-1.2-1.7-2.4-1.3-4s3-2.7,4.1-2c.6.4.5,1.2,1.3,1.6a2.81,2.81,0,0,0,2,.1c2.1-.5,5.4-.4,12.1-.1a1.82,1.82,0,0,1,1.2.4,2.38,2.38,0,0,1,.9,1.6c.7,3.1,3.9,7.5,4.1,7.8,1.1,1.5,2,2.7,3.5,2.9a4.21,4.21,0,0,0,3.1-.7c1.1-1,.3-2.3,1.4-3.2a2.71,2.71,0,0,1,3.2-.1c.5.5.4.9.9,1.3a2.48,2.48,0,0,0,2.7-.4c1.5-1.1,1.6-3.8.6-5.5-.6-1-1.1-1-1.3-1.8-.4-1.7,1.6-4,3.3-4,.8,0,1,.6,2.5,1.3,1.3.7,1.7.5,4.1,1.1,3.2.8,3.5,1.3,5.4,1.4,1,.1,3,.2,3.5-.8s-.7-1.6-.5-2.8c.4-1.7,3.3-3.1,5.2-2.4a2.92,2.92,0,0,1,1.3,1.1c2.8,3.2,6,2.5,8.4,5.1l1.5,4.5c-.3.9-1,1.2-1.5,2.2a6.13,6.13,0,0,0-.1,4c.7,3,3.1,5.3,7.5,8.4,1.5,1.1,3.4,2.3,5.4,3.6a7.78,7.78,0,0,0,2,.9,7.56,7.56,0,0,0,2.9.2c3.9-.2,5.9-.3,7.1.2s1.2,1.1,2.6,1.5a8.61,8.61,0,0,0,2.8.3c2.8.1,3-.6,4.2-.1a20.7,20.7,0,0,1,2.7,2c1,.7,1.4,1,1.4,1.4s-.8.8-1.8,1.2c-2.1.8-2.9.5-3.2,1.1-.4.8.9,2.7,2.5,2.9,1.8.3,2.2-1.7,4.8-2.5,3-.8,5.2,1,6.6-.3.3-.3.2-.4.7-1.5,1.4-3.1,2.5-3.1,2.9-5.1.2-.7,0-.4,0-3.8a22.1,22.1,0,0,1,.1-3.2c.1-.9.7-4.5,3.4-5.7,1-.4,2.8-.8,4,.1,1.6,1.1.6,2.9,1.9,5.6,2,4.3,7.2,5.8,8,6a28.09,28.09,0,0,0,4.4.4c9.9.4,11.9.1,13.1-.1,1.9-.4.8-.4,5.8-1.9,5.2-1.6,10.2-4.1,15.5-4.9a2.8,2.8,0,0,0,1.9-.9c.7-1.2-.7-2.6,0-3.9.5-1,1.5-.7,2.1-1.8.1-.2.3-.6.1-2.6-.3-2.8-.7-3.3-.3-4.3s.8-.8,1.3-2a6.13,6.13,0,0,0,.4-2.7c-.2-3.5-1-3.8-.7-5.1.6-2.9,5.3-3.3,5.2-5.2v-.1a10.81,10.81,0,0,1,2.1.5c.4.2,1.8.8,2.6.2.5-.3.5-.7,1.4-1.8.7-.8.9-.8,1.1-.9a2,2,0,0,1,1.9.8c.4.5.5,1,.5,3.4a19.34,19.34,0,0,0,0,2.5,8.68,8.68,0,0,0,.8,4,7.37,7.37,0,0,0,1.2,1.6c1,1.3,1.4,1.3,1.6,1.3a1.89,1.89,0,0,0,1.2-.7c.6-.7.2-1.3.7-1.9.4-.4.6-.2,1.5-.8s1.1-1.1,1.6-1.1.9.5,1.2,1.1c1.5,2.3,2.3,3.4,2.4,3.9.4,1.7-.4,2.1-.1,4.8a12.5,12.5,0,0,0,.3,1.9c1.1,2.4,4.2,1.9,5.8,4.5.5.7.9,1.9.5,2.4s-1.7-.5-3.3-.1c-1.8.5-2.7,2.4-3.3,3.7,0,.1-.4,1.4-1.1,4.1-.2.9-.3,1.4-.1,1.8.5.9,2.3,1,3.5.6.7-.2.8-.4,1.8-.8a8.73,8.73,0,0,1,2.3-.5c.9,1.5,1.8,2.9,2.7,4.4,0,2.2.1,4.3.1,6.5,2.8,4.4,5,7.8,6.4,10a162.51,162.51,0,0,1,10.5,18.6c.3.6,2.9,6.3,1.3,8.6a2.75,2.75,0,0,1-1.4,1.1c-.8.1-1.3-.5-2.5-1.1a5.53,5.53,0,0,0-3-.9c-.6,0-1,.3-4.6,3.7-1.4,1.3-1.5,1.5-1.7,1.9-.5,1.5.7,2.6.1,4a3.43,3.43,0,0,1-1.4,1.5c-3.4,2.4-5.6,7.7-7.4,12-.8,1.9-1.2,2.8-1.2,3.5,0,2.6,1.9,3.8,5.1,8.8,2.8,4.3,2.5,5.2,2.2,5.5a2.09,2.09,0,0,1-2.3.2c-.9-.5-.8-1.4-1.5-1.7s-2,.5-2.5,1.5a3.14,3.14,0,0,0,.6,3.1c1.1,1.2,2.4.6,3.6,1.5,1.5,1,1.2,3,1.7,5.4.9,4.4,3.8,7,9.7,12.2a6,6,0,0,0,3.1,1.6,5.33,5.33,0,0,0,3.2-.5c1.5-.8,1.3-1.9,2.4-2.2,1.4-.4,2.8,1.1,3.3,1.5s2.1,2.1,1.7,4.1a3.94,3.94,0,0,1-1.5,2.3c0,1.8.1,3.5.1,5.3,7.1,3.8,14.2,7.7,21.3,11.6,1.4.5,2.8,1.1,4.2,1.6,3.2,5.4,5.6,9.4,6.6,11.3a9.39,9.39,0,0,1,1.2,2.6c.6,1.7.4,2,1,2.9.7,1.2,1.4,1.1,2.2,1.9.1.1.2.3.3.4.9,1.3.3,1.8,1.1,3.6.7,1.5,1.2,1.2,1.8,2.6.8,1.8-.1,2.6,1,3.9.5.7,1,.9,1.7,1.9s.4,1.4,1,2.1c1,1.2,2.3.8,2.7,1.9C682,451.5,681.5,452.4,681.4,452.6Z" transform="translate(-0.64 -0.37)"/>
<path class="cls-3" d="M1063.6,238.6c-.3-.8-1.5-.8-3.1-1.1-4.9-.7-4.5-1.7-8.6-2-2.9-.3-3.5.2-4.6-.6-1.7-1.2-1.9-3.6-2-5.2-.1-1.3-.7-5.3,1.1-6.2.9-.5,1.6.2,2.8-.4.9-.4.8-1.2,1.7-2a4.86,4.86,0,0,1,2.7-1.3c0-8.9.1-17.9.1-26.8l-.6-2.4c-.2-4.1-.5-8.2-.7-12.4-.1-.1-.1-.2-.2-.3-4.4-.2-6.3-1.4-6.3-1.4a8.68,8.68,0,0,0-4.5-1.8c-2.2-.1-3.2,1.1-4.5.5s-.8-1.7-2.5-3.8a15.91,15.91,0,0,0-2.7-2.4,9.68,9.68,0,0,0-3.3-1.9c-1.3-.3-1.5.1-3.4,0a12.3,12.3,0,0,1-4.3-1.1c-2-.8-2-1.2-2.9-1.3-1.4-.1-1.7.8-4.1,1.6-1.6.6-3,1.1-3.7.5s-.1-1.6-.1-5.1a9.46,9.46,0,0,0-.2-2.8c-.7-1.9-1.9-2.2-2-3.8,0-1.1.6-1.3.5-2.4a3.36,3.36,0,0,0-2.1-2.5c-1.7-.5-2.6,1.6-5.6,2.6-.9.3-3.5.2-8.7.1-1.9,0-2.5-.1-3.3.4-2.2,1.2-1.4,3.5-3.2,4.9s-3.2-.4-9.5.1a14.48,14.48,0,0,1-4.2,0,7.8,7.8,0,0,1-3.6-1.1,7.28,7.28,0,0,1-2.9-2.8c-.3-.6-1.3-2.3-.6-3.5.5-.9,1.5-.7,1.8-1.5s-.4-1.1-.7-2.6a5.67,5.67,0,0,1,.1-2.9c.4-1.4,1-1.5,1.1-2.5s-.6-1.9-1.3-2.8c-1.1-1.5-1.7-1.5-3.4-3.1-1.9-1.7-2.8-2.6-3.2-3.9-.3-1-.2-1.8-.9-2.4a1.93,1.93,0,0,0-1.7-.4c-1.2.4-.7,2-2.1,3.2-1,.8-1.7.3-3.1,1.4-.9.7-.7,1-1.4,1.3a3.54,3.54,0,0,1-3.3-.4c-.8-.5-.8-.9-1.5-1.2s-1,.1-1.9.1c-1.5.1-3.4-.6-3.7-1.5-.2-.7.6-.9.6-1.9.1-1.3-1.2-2.3-1.5-2.6-1.7-1.4-3.3-.7-8.9-.6-4.2.1-5.8-.2-6.4.9-.8,1.3.5,3.3-.6,4.1-.6.4-1.1.1-1.7.5-1,.8-.2,2.5-1.1,3.4s-2.6.1-2.7.1c-1.7-.7-1.6-2.1-4-4.2a5.64,5.64,0,0,0-2.3-1.6c-1.4-.4-2,.3-4.1.1-.7-.1-2.6-.2-2.8-1.1-.1-.5.3-1,1.1-1.9,1.5-1.7,2.2-1.8,2.5-2.7a3,3,0,0,0-1.1-2.9c-1.2-1-3-.8-4.6-.5-2.7.4-3.6,1.4-4.2.9-.9-.8,1.1-2.9.2-6a18.78,18.78,0,0,1-1.3-3.5c-.3-1.4-.1-1.7-.4-2.2-1.2-1.7-6.2-.2-7.1.1-4.4,1.4-9.6,4.7-9.2,7.5.1,1,1,1.8.6,2.7a1.54,1.54,0,0,1-1.7.9c-.4-.2-.4-.7-.6-2.1a19.57,19.57,0,0,0-.7-3.3,11.35,11.35,0,0,0-2-2.7,6.57,6.57,0,0,0-2-1.9,3.51,3.51,0,0,0-2.7-.4c-1.4.4-1.5,1.7-2.9,2a3.85,3.85,0,0,1-1.8-.2c-1.8-.5-1.9-1.3-3.2-1.5a3.56,3.56,0,0,0-3.6,1.8c-.2.5.1.6-.1,1.4a3.63,3.63,0,0,1-1.6,2.5c-1.1.5-1.8-.4-2.8.2a2.76,2.76,0,0,0-1.3,2.1c-.2,1.3.5,1.6.3,2.5-.3,2-4.4,1.5-5.6,4-1,2.1.8,4.9,1.1,5.3a9.28,9.28,0,0,0,2.6,2.5c1.8,1.1,2.6.6,3.3,1.5,1.2,1.6-.6,4.2.5,5.1.7.6,1.5-.3,2.3.3,1.4.9.9,4.2.6,6.4a4.76,4.76,0,0,1-.4,1.8c-1.2,2.7-4.8,2.3-5.4,4.2-.5,1.7,2.3,3.5,1.4,4.8-.5.8-1.9.8-1.9,1.4s1.4,1.1,1.4,1.9c0,1-1.8,1.7-1.9,1.8-1.4.6-1.9,0-2.7.5-1.2.9-.4,2.7-1.6,3.7-1,.9-2.1-.2-3.5.3-2.7,1.1-1.9,6-4.4,6.9-1.6.6-2.5-1.1-4.2-.3s-1.3,2.4-3,3.3-3.3-.3-4.2.7-.5,3.3,0,4.4c.6,1.4,1.2,1.5,1.2,2.5a4,4,0,0,1-2.7,3.2c-1.4.5-2.3-.2-2.8.3-.9.9.8,2.9-.2,4.1a2,2,0,0,1-2.6.3c-.4-.3-.5-.7-.7-1.9-.7-3.3-.9-3.6-1.1-3.7-.8-.6-1.6.3-3.5,0a10,10,0,0,1-3.2-1.6,18.06,18.06,0,0,1-3.3-2.3,15.53,15.53,0,0,0-2.3-2.1,3.64,3.64,0,0,0-2.1-.9c-1,0-1.5.7-2.1,1.1-.9.6-2.4,1-5.3,0-.2,3.8-.5,7.7-.7,11.5a4.75,4.75,0,0,1-3.5-.5c-.7-.5-.8-.9-1.6-1.2s-1.5-.3-3.2,0c-2.8.5-2.8,1-4.1,1.1s-1.4-.3-4.8-1.4a28.53,28.53,0,0,0-4.9-1.4c-3-.4-4.9.4-5.3-.3s.9-1.4.7-2.8a2.77,2.77,0,0,0-1.8-2.1c-.4-.2-.9-.3-2.3,0-1.6.3-2.2.8-4.2,1.6-2.7,1.1-3.4.9-3.7.9a5.11,5.11,0,0,1-2.5-1.6c-1-1.1-.7-1.5-1.8-3-.7-.9-1.5-2-2.7-2.1-.5-.1-.8.1-1.2.1a36.58,36.58,0,0,1,.2,4.1,31.38,31.38,0,0,1-.3,4.8c-.3,1.6-.5,1.5-.7,2.8-.3,2.3.3,3-.2,4.8-.1.3-.5,1-1.2,2.3-1.5,2.9-2,3.4-2.4,4.7a11,11,0,0,0-.2,2.7c0,3.8,1.1,5.2.2,6.6a3.81,3.81,0,0,1-2.5,1.5c-3.5,1.3-2.6,1.8-8.4,4.7-6.8,3.4-10.2,3.8-10.2,5.4,0,.6.4.6,2.5,3.1a22.84,22.84,0,0,1,2.8,3.5c1.5,2.3,1,3,2.7,5.9.5.9.8,1.1.8,1.7.2,1.7-1.4,2.6-2.6,4.6a13.09,13.09,0,0,0-1.5,5.4,20.84,20.84,0,0,0,.7,8c1.1,4.9,1.9,4.2,2.2,7.2.3,2.6-.3,3.3-.3,9.3a9.38,9.38,0,0,0,.7,3.9,5.6,5.6,0,0,0,2.2,3,5.3,5.3,0,0,0,5.8-.4c1.2-1,.8-1.7,2.6-4.5,1.1-1.8,1.9-3,2.8-2.9s1,1.1,2.6,2.9a9.54,9.54,0,0,0,4.2,3.3c2.1.7,3.1-.4,4.4.5.8.6.9,1.3,1.4,3a34,34,0,0,0,2.1,5.9,12.65,12.65,0,0,0,5.3,4.9,20.91,20.91,0,0,0,5.7,1.2,45.86,45.86,0,0,0,7.3.8c3.1,0,4.7,0,6.4-.6,1.5-.6,2.2-1.3,3.3-1.1,1.5.3,2.9,1.7,2.8,3,0,.9-.7,1-1.5,2.4-.3.5-1.5,2.7-.8,4.4.6,1.4,2.3,1.8,4.1,2.3,1.3.3,3.2.8,4.8-.1,1.1-.6,1.2-1.3,2-2.4,3.2-4.3,10.9-6.3,12.9-6.8a2.26,2.26,0,0,0,1-.5c.6-.6.5-1.5.5-3-.1-2.3-.2-3.4.1-3.7s1.4-.3,3.4-.1a9.06,9.06,0,0,1,2.7.6,6.35,6.35,0,0,1,2,2.6c1.3,2.6.7,3,1.6,4.3a3.66,3.66,0,0,0,1.7,1.4,6.13,6.13,0,0,1,3.8-.5,8.72,8.72,0,0,0,3.1.5c1.7-.2,2.4-1.1,3.8-1.9s3.1-1,6.6-1.4c4.4-.5,6.7-.8,7.8.5.4.4.4.8.7,2.8.9,5.8,1.1,5.6,1.2,7.8.1,3.1.1,4.7-.9,5.9-1.5,1.8-3.8,1.2-4.2,2.6s1.3,3.4,3.1,4c.8.3.9,0,3.5,0a17.42,17.42,0,0,1,3.8.2c1.7.6,1.6,1.8,3.3,3.1a8.16,8.16,0,0,0,6.6,1.2c1.6-.5,2.6-1.6,4.5-3.5,2-2.1,2.3-3.2,3.5-3.3s1.5.9,3.5,1.9a11.66,11.66,0,0,0,5.9.9,14.9,14.9,0,0,0,5.4-1.4c1.9-.8,1.8-1.1,3.1-1.4s2.2-.2,5.4.2c2.2.3,4,.6,4.9.7.2,4.5.5,9.1.7,13.7a5.07,5.07,0,0,0,2.6.7,6.37,6.37,0,0,0,4.7-1.9c1.4-1.4.9-2.6,2.4-3.5.9-.6,1.1-.2,2.6-.7a12.22,12.22,0,0,0,4.9-3.4c1.5-1.6,1.3-1.8,2.3-2.5,1.2-.8,1.7-.4,4.1-1.3s2.9-1.7,3.1-2a3.56,3.56,0,0,0,.3-1.9c0-2.6-.8-3.5-1.1-6.3-.2-1.6-.3-2.5.3-3.4a4.49,4.49,0,0,1,3-1.9,16.7,16.7,0,0,1,3.1-.2,12.72,12.72,0,0,0,3.1-.4c1.4-.7.8-2.3,2.1-4.5.4-.6,1.8-3,4.2-3.6,1.2-.3,2.2-.1,3.6-1a3.07,3.07,0,0,0,1.3-1.2,5.06,5.06,0,0,0,.8-1.9c.5-2.4,3.7-5.4,6.7-5.6a14.84,14.84,0,0,1,2.5.5c3.8,1.1,4.1,2.2,6.4,2.4,1.6.1,2.5-.4,3.2.3a2.45,2.45,0,0,1,.5,2.3c-.1.3-.2.7-2.1,2.4-1.1,1-1.3,1.2-1.4,1.6-.1.7.6,1,1.1,2.1a6.34,6.34,0,0,1,.2,3.8,7.73,7.73,0,0,1-1.4,3.2c-.7,1-1.4,1.4-1.2,1.6s1.6-.2,2.7-.5c2.4-.8,2.4-1.1,3.6-1.4a7.21,7.21,0,0,1,5,.2c1.4.6,1.3,1.3,2.9,1.9a3.52,3.52,0,0,0,3.2.1,2.7,2.7,0,0,0,1.2-1.8c.2-1.4-1.1-1.9-.9-3,.1-.5.9-1.1,2.6-2.3s2-1.3,2.4-1.3c.9,0,1,.8,2.2,1.2a3.7,3.7,0,0,0,3.5-.3,2.9,2.9,0,0,0,1.4-2.6c-.3-1.4-2.2-1.4-2.3-2.6,0-.6.6-1.3,1.9-2.7a13.61,13.61,0,0,1,1.8-1.8c2.2-1.5,4.2.1,5.5-1.2,1-1,0-2,1.2-4.1a5.55,5.55,0,0,1,3.5-2.8,6.15,6.15,0,0,1,2.3.1,28.29,28.29,0,0,0,5.9-.1c2.5-.3,5-.7,5.7-2.3a15.11,15.11,0,0,0,.6-3.5,4.64,4.64,0,0,1,.3-1.7c.5-.6,1.3-.8,3.3-1,3.5-.3,3.6-.2,4.3-.5s.8-.7,2.7-2.8c2.3-2.5,3.2-2.9,3.2-4.1a2.26,2.26,0,0,0-1.2-2.1c-.6-.3-1.3-.1-2.6.2a6.35,6.35,0,0,0-2.1.9,6,6,0,0,0-1.1,1c-.5.5-.5.7-.7.8-.6.3-1.6-.3-2.2-1-.8-1-.4-1.7-1.1-3.2-.6-1.3-1-1.1-2.1-2.7-.3-.4-2-3-1.2-3.9.4-.4,1.3-.3,1.7-.2,1.4.3,1.5,1.2,2.8,1.7a5.15,5.15,0,0,0,3.1,0,7.1,7.1,0,0,0,2.5-1.6c1.9-1.6,6,0,8.6,1.3a2.69,2.69,0,0,0,.9-.6c.8-1,.3-1.9.9-2.8.7-1.1,1.7-.6,3-1.6,1.6-1.3.8-3,2.2-4.5.9-.9,2.3-1.1,5.2-1.4,2.1-.2,3.3-.2,6.9-.5a5.13,5.13,0,0,0,3.5-1.2C1063.3,240.4,1064,239.4,1063.6,238.6Zm-98.3,26.9c-.5.3-1.1-.4-1.8,0s-.3,1.4-1,2.1c-.9.9-2.2,0-3,.8s.2,2.7-.7,3.4a2.15,2.15,0,0,1-2.3-.2c-1.4-.8-1-2.3-2.3-2.9-1-.5-1.7.4-2.9-.1a3.94,3.94,0,0,1-1.9-2.5c-.5-1.3,0-1.7.4-5.9.2-1.6.2-2.5.9-3a3.16,3.16,0,0,1,1.9-.4c1.5.2,2,1.4,2.8,1.2.5-.2.4-.7,1.1-1.1a2,2,0,0,1,2.1.2c.5.4.3.9.6,1.7s1.2,1.3,2.7,2.1c1.9,1,2.3.9,2.8,1.6C965.7,263.6,965.8,265.1,965.3,265.5Z" transform="translate(-0.64 -0.37)"/>
<path class="cls-3" d="M827.3,303c-1.2,3.9-5.5,6.8-9.7,7.9s-6.3,0-7.6,1.8.5,3.4-.5,6-3.5,2.6-7.1,5.5c-1.8,1.4-3,2.9-5.3,5.8-6.1,7.8-12.8,19.8-13.9,21.9a17.44,17.44,0,0,0-4.2,1.6,19.64,19.64,0,0,0-7.4,6.5,19.32,19.32,0,0,0-2.8,12.7,31.39,31.39,0,0,1-6.3.7,2.68,2.68,0,0,0-1,.2,2,2,0,0,0-1,1.2c-.8,2.2-7.8,13.5-9.1,13-.4-.2,0-1.4-.9-2.2a2.88,2.88,0,0,0-1.9-.5c-5.5,0-6.4-.6-7.6.3-.6.5-.3.7-1.3,2.7a13.86,13.86,0,0,1-4.1,5.3c-.3.2-1.4.8-3.4,1.8a21.78,21.78,0,0,1-2.8,1.3c-1.8.6-3.4.2-6.2-.6-4.1-1.2-5.1-1.7-7.8-2.5-4.8-1.5-4.4-.8-8.1-2-4-1.3-6-2.6-7.2-1.7-.3.3-.4.6-.8,2.8-.7,4.4-1.1,6.6-1.1,7.6.1,2.2.4,3-.2,3.5s-1,.2-4.1.1a7.23,7.23,0,0,0-3.3.3c-.9.3-1.7.5-2,1.2-.3.4-.5,1.3,1,4.1,1.8,3.5,3.4,4.4,3,5.5-.2.6-1.4.9-3.7,1.4-1.8.4-4,.8-6.5,1.6-1.5.4-1.8.6-2,1.1-.5,1,.9,1.9,1.3,4.3a5.34,5.34,0,0,1-.2,3c-.2.5-.5.9-2.4,2.6-1.2,1-2.1,1.8-2.7,2.3-1.7,1.4-2.4,2-3.2,2.7l-1.2.9c-.8-.8-1.4-.7-2.2-1.9-.6-.9-.4-1.3-1-2.9-.3-.7-.6-1.4-1.2-2.6-1-1.9-3.4-5.9-6.6-11.3-1.4-.5-2.8-1.1-4.2-1.6-7.1-3.9-14.2-7.7-21.3-11.6,0-1.8-.1-3.5-.1-5.3a3.53,3.53,0,0,0,1.5-2.3c.4-2-1.2-3.6-1.7-4.1s-1.9-1.9-3.3-1.5c-1.1.3-.9,1.4-2.4,2.2a4.59,4.59,0,0,1-3.2.5,6,6,0,0,1-3.1-1.6c-5.9-5.2-8.8-7.8-9.7-12.2-.5-2.4-.2-4.4-1.7-5.4-1.2-.9-2.6-.3-3.6-1.5a3.09,3.09,0,0,1-.6-3.1c.5-1,1.7-1.8,2.5-1.5s.6,1.2,1.5,1.7a2.07,2.07,0,0,0,2.3-.2c.3-.3.5-1.2-2.2-5.5-3.2-5-5.1-6.2-5.1-8.8a10.7,10.7,0,0,1,1.2-3.5c1.8-4.3,4-9.6,7.4-12a3.43,3.43,0,0,0,1.4-1.5c.5-1.4-.6-2.5-.1-4,.1-.4.3-.6,1.7-1.9,3.5-3.4,4-3.6,4.6-3.7a6.91,6.91,0,0,1,3,.9c1.2.6,1.7,1.2,2.5,1.1a2.06,2.06,0,0,0,1.4-1.1c1.6-2.3-1-8-1.3-8.6a162.51,162.51,0,0,0-10.5-18.6c-1.4-2.2-3.7-5.6-6.4-10,0-2.2-.1-4.3-.1-6.5-.9-1.5-1.8-2.9-2.7-4.4a16.42,16.42,0,0,0-2.3.5c-1,.4-1.1.6-1.8.8-1.2.3-3,.2-3.5-.6-.2-.4-.1-.9.1-1.8.7-2.7,1-4,1.1-4.1.6-1.2,1.5-3.2,3.3-3.7,1.6-.4,2.8.6,3.3.1s0-1.6-.5-2.4c-1.6-2.6-4.7-2-5.8-4.5a4.09,4.09,0,0,1-.3-1.9c-.3-2.7.5-3.1.1-4.8-.1-.5-.9-1.6-2.4-3.9-.3-.5-.7-1.1-1.2-1.1s-.6.5-1.6,1.1-1.1.3-1.5.8-.1,1.2-.7,1.9a1.89,1.89,0,0,1-1.2.7c-.2,0-.5-.1-1.6-1.3a7.37,7.37,0,0,1-1.2-1.6,8.42,8.42,0,0,1-.8-4,19.34,19.34,0,0,1,0-2.5c0-2.5-.2-3-.5-3.4-.5-.5-1.3-1-1.9-.8-.1,0-.4.1-1.1.9-1,1.1-1,1.5-1.4,1.8a2.79,2.79,0,0,1-2.6-.2,10.81,10.81,0,0,0-2.1-.5c-.1-.7-.9-1-1.9-1.8-3.3-2.5-2.6-5.2-4.6-7.3-2.8-2.9-6.1.1-14.5-2.7-2.8-.9-5.3-1.8-6.2-4.1-.8-2,.1-4-1.2-5.2-.8-.7-2-.6-3.3-.5-2.5.2-7.4.7-10.9-.3s-6.3-3.5-6-4.6c.2-.7,1.3-.4,2.5-1.4,1.4-1.3,2-3.8,1.1-5.1-.5-.7-1.2-.6-3.2-1.2-3.5-1.1-3.5-2-5.8-2.5-2.7-.5-3,.7-5.3,0-.6-.2-3.3-1-4.2-3.5a6,6,0,0,1,.2-4.2h10.1c2-2.7,4-5.3,6.2-7.9.8-1,1.9-2.4,3.4-2.3a3.55,3.55,0,0,1,2.1,1.2h6c.9-3.5,2.2-4.6,3.2-4.9,1.5-.5,2.3.5,3.7-.2,1.9-.9,1.4-3.2,3.4-4.1,1.2-.5,2.2,0,2.7-.8a1.67,1.67,0,0,0-.1-1.9c-.5-.7-1.1-.4-1.8-.9-1-.7-.8-2.3-1.6-6.8a2.62,2.62,0,0,0-.9-1.8c-.5-.3-.9-.1-1.8-.1-1.5,0-3.2-.8-3.7-1.9a4.28,4.28,0,0,1,.1-1.9c.3-2.3.6-2.7.3-3.1-.6-1-2.5.2-4-.9s-1.6-3.6-.8-5.3a5.58,5.58,0,0,1,2.7-2.4c5.8-3.1,9.1-4.9,10.6-7.9,1.1-2.1.3-3.1,1.8-5,.3-.4,2.2-2.9,4.6-2.7s2.8,2.7,4.9,2.6c1.8-.1,2.1-1.9,4.2-2.2,1.6-.2,1.8.8,4.7,1.8a21.05,21.05,0,0,0,8.6,1.3,5.75,5.75,0,0,1,2.1.2c1.4.4,1.6,1.2,2.7,1.7,1.9.9,4.1-.2,4.6-.4a7.26,7.26,0,0,0,3.4-4.2,9.81,9.81,0,0,0,.2-2.7c0-1.8,0-2.7-.6-3.2s-.9-.1-2.3-.5a19.47,19.47,0,0,1-2-.9c-1.5-.5-2,0-3.7-.3a10.85,10.85,0,0,1-4-1.6c-1.8-1-2.1-1.7-3.6-2.2a8.15,8.15,0,0,0-2.5-.4c-3.5-.3-5.2-.4-6.4-1.1-2.2-1.2-2.1-2.8-4.4-3.4a10.71,10.71,0,0,0-2.3-.3c-1.2-.1-2.6-.1-3.6-.1-1.4,0-1.5,0-1.7-.1-1.6-.9-.3-5.7-.2-6.2.6-2.3,2.5-6.8,4.7-6.7a3.24,3.24,0,0,1,2,1.1c1,1.1.7,2.1,1.6,2.7a2.45,2.45,0,0,0,1.8.2c1.4-.4,1.2-2,2.7-2.9,1.1-.6,1.8-.1,2.4-.7.8-.9.3-2.8-.5-4a4.14,4.14,0,0,0-1.8-1.6,4.75,4.75,0,0,0-4.2.3c-1.1.7-1.1,1.4-2.2,1.8a3.8,3.8,0,0,1-2.1-.1,35.39,35.39,0,0,1-6-1.8c-2.4-1.3-2.1-1.9-3.4-2.2-2.1-.4-3.3,1-4.6.2-.7-.5-1.1-1.5-.8-2,.5-.8,2.8-.4,3.5-.3,1.4.3,1.4.6,2,.5,1.3-.1,1.6-1.5,3.4-3.8,2.1-2.7,3-2.6,3.4-4.3a5.1,5.1,0,0,0-.5-4c-1.3-1.9-4.1-2-4.5-2-1.5,0-2.2.4-3.1-.1a2.31,2.31,0,0,1-1.1-2c.1-1.1,1.5-1.8,2.2-2,1-.3,1.3.1,2.2-.1,1.1-.3,1.4-1.1,2.5-2.3a17.71,17.71,0,0,1,6.1-3.9,6.9,6.9,0,0,1,2-.7,5.32,5.32,0,0,1,4.5,2.8,3,3,0,0,0,.6,1.1,2.76,2.76,0,0,0,2.1.4c2.6-.3,5.1-.1,7.7-.2a2,2,0,0,1,1,.2c.7.3.7.9,1.5,2a3.82,3.82,0,0,0,1.9,1.6,9.68,9.68,0,0,0,1.2.2c1,.1,1.2-.1,2.9-.1.7,0,.8,0,.9-.1.6-.6-1.2-2.4-.6-3.8a2.62,2.62,0,0,1,2.9-1.2c.7.3.7.8,1.5,1.2a3.5,3.5,0,0,0,2,.1c2.7-.5,5-1,6.5-.2.5.2,1.2,1.4,2.7,3.8a10.67,10.67,0,0,0,2.5,3.1c1.3,1,2.1.9,2.2.8.4-.1.8-.4,1.2-1.2,1.5-3-.8-6,.7-7.5.5-.5.7-.2,2.1-1.1a8.79,8.79,0,0,0,2.2-1.8c5.6-.1,11.2-.2,16.8-.4,0-1.4-.1-2.8-.1-4.2a2.32,2.32,0,0,1,2.3-1.5,2.73,2.73,0,0,1,1.9,1.1H648c.9-.5,1.8-.9,2.4-1.2a16.93,16.93,0,0,1,5.4-1.8c.8-.1,1.3,0,1.8-.4.9-.6.7-1.7,1.5-2a1.47,1.47,0,0,1,1.3.1c.6.4.5.9,1.1,1.4s1,.1,1.8.5c1,.6.7,1.7,1.7,2.4s2.8.1,3.3-.1c.2-.1,2.4-1,2.3-2.2,0-.9-1.3-1.1-1.5-2.4a2.18,2.18,0,0,1,.2-1.5c.4-.6,1.3-.7,2.5-.8,4.2-.3,5.1.4,6.7-.3a6.67,6.67,0,0,1,1.8-.7,7.4,7.4,0,0,1,2-.1c5.2.4,6.6.9,7.8,0a5.68,5.68,0,0,1,1.4-1.1,2.26,2.26,0,0,1,2,0c.5.4.3.8.7,1.2s.9.2,1.8.1c2.3-.2,2.4.3,3.3-.1,1.1-.5.8-1.3,2-1.9,1-.5,1.3,0,2.2-.5,1.1-.6,1-1.6,2-1.9a1.56,1.56,0,0,1,1.6.4c.5.4.5.8.8,1.5.6,1.2,1.3,1.2,2.2,2.3a5.88,5.88,0,0,1,1.2,2.4c1.7,0,3.3-.1,4.9-.1,0-1.4.1-2.8.1-4.1a3.4,3.4,0,0,1-1.2-1.4,4.43,4.43,0,0,1,.2-3.1c.5-1.1.8-1.1.9-1.9.1-1.1-.5-1.7-.1-2.2.3-.3.7-.3,1.3-.4a9.07,9.07,0,0,0,2.9-1.4c2.4-1.5,2.6-2.4,5.1-3.9,1.8-1.1,2.4-1.1,2.8-1,1.1.3,1.1,1.3,2.3,1.5,1,.2,1.5-.4,2.4,0,.6.3.5.7,1.1,1.1a2.72,2.72,0,0,0,2.4-.1c2.4-.9,1.9-3.7,4.3-5.1,1.1-.6,2.8-.9,3.6-.2a3.74,3.74,0,0,1,.8,3.1c-.1.3-.2.7,0,.9s.7.1,1.3.1c1.9-.3,2.2.2,3.2-.2.1,0,.1-.1.2-.1a37.7,37.7,0,0,0,.6,3.9c.7,3.3,1.2,4.2,1.1,6.6-.1,2-.6,2.9-.1,4.6a23.29,23.29,0,0,0,1.6,3.3c1,1.8,1.4,2.2,1.3,2.8-.2.9-1.2.9-2,2.3a2.72,2.72,0,0,0-.5,2.2c.3.9,1.4,1.3,1.9,1.5,1.4.5,1.9-.1,2.9.5.7.4,1,1,1.6,2.3s.9,1.9.7,2.5c-.3.8-1.4.7-3.8,1.2a15.34,15.34,0,0,0-4.5,1.3,8,8,0,0,0-3.7,4c-.2.5-.2.9,0,4.6.3,4.8.5,5.4,1.1,5.9,1.2,1.1,2.6.2,3.4,1.4.6.8,0,1.3.6,3.2.4,1.3.8,1.3.9,2.4a4.1,4.1,0,0,1-.5,2.6c-.7,1-1.4.7-2.1,1.5s-.6,2.2-.3,4.8c.2,2,.5,2.5.8,2.8a1.88,1.88,0,0,0,.9.4c.3.1.7.2,1.1.3,2,.5,2.5.4,2.9.8a2.41,2.41,0,0,1,.2,2.3,29.2,29.2,0,0,0,.2,14,5.42,5.42,0,0,0,.6,1.1c1.2,1.3,3.1.2,4.2,1.3a2.44,2.44,0,0,1,.3,3.1c-.5.7-2,.7-4.8.6a7.53,7.53,0,0,0-2.4.1c-1.2.5-1.2,1.3-2.5,1.9s-1.6.1-2.2.6c-1.1.9-.9,2.8-.5,3.9a5.34,5.34,0,0,0,1.4,2.3c3.7.1,7.4.1,11.1.2a3.3,3.3,0,0,1,.2,2.7c-.2.5-.8,1.1-2.8,1.6-2.3.6-3.1-.1-6.2.4a3.88,3.88,0,0,0-2.3.9,4.36,4.36,0,0,0-1.2,1.9c-.9,2.3-1.4,3.4-1.6,4.2-.6,2.4-1,9.1-.4,18a1.92,1.92,0,0,0,.9,1.8,1.27,1.27,0,0,0,.6.1,36.58,36.58,0,0,1,.2,4.1,31.38,31.38,0,0,1-.3,4.8c-.3,1.6-.5,1.5-.7,2.8-.3,2.3.3,3-.2,4.8-.1.3-.5,1-1.2,2.3-1.5,2.9-2,3.4-2.4,4.7a11,11,0,0,0-.2,2.7c0,3.8,1.1,5.2.2,6.6a3.81,3.81,0,0,1-2.5,1.5c-3.5,1.3-2.6,1.8-8.4,4.7-6.8,3.4-10.2,3.8-10.2,5.4,0,.6.4.6,2.5,3.1a22.84,22.84,0,0,1,2.8,3.5c1.5,2.3,1,3,2.7,5.9.5.9.8,1.1.8,1.7.2,1.7-1.4,2.6-2.6,4.6a13.09,13.09,0,0,0-1.5,5.4,20.84,20.84,0,0,0,.7,8c1.1,4.9,1.9,4.2,2.2,7.2.3,2.6-.3,3.3-.3,9.3a9.38,9.38,0,0,0,.7,3.9,5.6,5.6,0,0,0,2.2,3,5.3,5.3,0,0,0,5.8-.4c1.2-1,.8-1.7,2.6-4.5,1.1-1.8,1.9-3,2.8-2.9s1,1.1,2.6,2.9A9.54,9.54,0,0,0,751,278c2.1.7,3.1-.4,4.4.5.8.6.9,1.3,1.4,3a34,34,0,0,0,2.1,5.9,12.65,12.65,0,0,0,5.3,4.9,20.91,20.91,0,0,0,5.7,1.2,45.86,45.86,0,0,0,7.3.8c3.1,0,4.7,0,6.4-.6,1.5-.6,2.2-1.3,3.3-1.1,1.5.3,2.9,1.7,2.8,3,0,.9-.7,1-1.5,2.4-.3.5-1.5,2.7-.8,4.4.6,1.4,2.3,1.8,4.1,2.3,1.3.3,3.2.8,4.8-.1,1.1-.6,1.2-1.3,2-2.4,3.2-4.3,10.9-6.3,12.9-6.8a2.26,2.26,0,0,0,1-.5c.6-.6.5-1.5.5-3-.1-2.3-.2-3.4.1-3.7s1.4-.3,3.4-.1a9.06,9.06,0,0,1,2.7.6,6.35,6.35,0,0,1,2,2.6c1.3,2.6.7,3,1.6,4.3a3.66,3.66,0,0,0,1.7,1.4,5.94,5.94,0,0,1,3.1,6Z" transform="translate(-0.64 -0.37)"/>
<path class="cls-3" d="M1054.2,164.6c-.6,4.4-1.4,5.1-1.8,5.4a2.92,2.92,0,0,1-2.8.7,4.15,4.15,0,0,1-1.1-1.2c-.7-1.3-.2-2.1-.8-2.6-.1-.1-.5-.3-2.2-.5s-2.7-.2-3.2.2c-.9.9-.3,2.8-.1,3.2a4.81,4.81,0,0,0,1.9,2.5,5.66,5.66,0,0,0,2.8.8c2.6.3,3.8-.6,4.5.1.4.5,0,1,.2,2.5a6.25,6.25,0,0,0,.7,2.3c-4.4-.2-6.3-1.4-6.3-1.4a8.68,8.68,0,0,0-4.5-1.8c-2.2-.1-3.2,1.1-4.5.5s-.8-1.7-2.5-3.8a15.91,15.91,0,0,0-2.7-2.4,9.68,9.68,0,0,0-3.3-1.9c-1.3-.3-1.5.1-3.4,0a12.3,12.3,0,0,1-4.3-1.1c-2-.8-2-1.2-2.9-1.3-1.4-.1-1.7.8-4.1,1.6-1.6.6-3,1.1-3.7.5s-.1-1.6-.1-5.1a9.46,9.46,0,0,0-.2-2.8c-.7-1.9-1.9-2.2-2-3.8,0-1.1.6-1.3.5-2.4a3.36,3.36,0,0,0-2.1-2.5c-1.7-.5-2.6,1.6-5.6,2.6-.9.3-3.5.2-8.7.1-1.9,0-2.5-.1-3.3.4-2.2,1.2-1.4,3.5-3.2,4.9s-3.2-.4-9.5.1a14.48,14.48,0,0,1-4.2,0,7.8,7.8,0,0,1-3.6-1.1,7.28,7.28,0,0,1-2.9-2.8c-.3-.6-1.3-2.3-.6-3.5.5-.9,1.5-.7,1.8-1.5s-.4-1.1-.7-2.6a5.67,5.67,0,0,1,.1-2.9c.4-1.4,1-1.5,1.1-2.5s-.6-1.9-1.3-2.8c-1.1-1.5-1.7-1.5-3.4-3.1-1.9-1.7-2.8-2.6-3.2-3.9-.3-1-.2-1.8-.9-2.4a1.93,1.93,0,0,0-1.7-.4c-1.2.4-.7,2-2.1,3.2-1,.8-1.7.3-3.1,1.4-.9.7-.7,1-1.4,1.3a3.54,3.54,0,0,1-3.3-.4c-.8-.5-.8-.9-1.5-1.2s-1,.1-1.9.1c-1.5.1-3.4-.6-3.7-1.5-.2-.7.6-.9.6-1.9.1-1.3-1.2-2.3-1.5-2.6-1.7-1.4-3.3-.7-8.9-.6-4.2.1-5.8-.2-6.4.9-.8,1.3.5,3.3-.6,4.1-.6.4-1.1.1-1.7.5-1,.8-.2,2.5-1.1,3.4s-2.6.1-2.7.1c-1.7-.7-1.6-2.1-4-4.2a5.64,5.64,0,0,0-2.3-1.6c-1.4-.4-2,.3-4.1.1-.7-.1-2.6-.2-2.8-1.1-.1-.5.3-1,1.1-1.9,1.5-1.7,2.2-1.8,2.5-2.7a3,3,0,0,0-1.1-2.9c-1.2-1-3-.8-4.6-.5-2.7.4-3.6,1.4-4.2.9-.9-.8,1.1-2.9.2-6a18.78,18.78,0,0,1-1.3-3.5c-.3-1.4-.1-1.7-.4-2.2-1.2-1.7-6.2-.2-7.1.1-4.4,1.4-9.6,4.7-9.2,7.5.1,1,1,1.8.6,2.7a1.54,1.54,0,0,1-1.7.9c-.4-.2-.4-.7-.6-2.1a19.57,19.57,0,0,0-.7-3.3,11.35,11.35,0,0,0-2-2.7,6.57,6.57,0,0,0-2-1.9,3.51,3.51,0,0,0-2.7-.4c-1.4.4-1.5,1.7-2.9,2a3.85,3.85,0,0,1-1.8-.2c-1.8-.5-1.9-1.3-3.2-1.5a3.56,3.56,0,0,0-3.6,1.8c-.2.5.1.6-.1,1.4a3.63,3.63,0,0,1-1.6,2.5c-1.1.5-1.8-.4-2.8.2a2.76,2.76,0,0,0-1.3,2.1c-.2,1.3.5,1.6.3,2.5-.3,2-4.4,1.5-5.6,4-1,2.1.8,4.9,1.1,5.3a9.28,9.28,0,0,0,2.6,2.5c1.8,1.1,2.6.6,3.3,1.5,1.2,1.6-.6,4.2.5,5.1.7.6,1.5-.3,2.3.3,1.4.9.9,4.2.6,6.4a4.76,4.76,0,0,1-.4,1.8c-1.2,2.7-4.8,2.3-5.4,4.2-.5,1.7,2.3,3.5,1.4,4.8-.5.8-1.9.8-1.9,1.4s1.4,1.1,1.4,1.9c0,1-1.8,1.7-1.9,1.8-1.4.6-1.9,0-2.7.5-1.2.9-.4,2.7-1.6,3.7-1,.9-2.1-.2-3.5.3-2.7,1.1-1.9,6-4.4,6.9-1.6.6-2.5-1.1-4.2-.3s-1.3,2.4-3,3.3-3.3-.3-4.2.7-.5,3.3,0,4.4c.6,1.4,1.2,1.5,1.2,2.5a4,4,0,0,1-2.7,3.2c-1.4.5-2.3-.2-2.8.3-.9.9.8,2.9-.2,4.1a2,2,0,0,1-2.6.3c-.4-.3-.5-.7-.7-1.9-.7-3.3-.9-3.6-1.1-3.7-.8-.6-1.6.3-3.5,0a10,10,0,0,1-3.2-1.6,18.06,18.06,0,0,1-3.3-2.3,15.53,15.53,0,0,0-2.3-2.1,3.64,3.64,0,0,0-2.1-.9c-1,0-1.5.7-2.1,1.1-.9.6-2.4,1-5.3,0-.2,3.8-.5,7.7-.7,11.5a4.75,4.75,0,0,1-3.5-.5c-.7-.5-.8-.9-1.6-1.2s-1.5-.3-3.2,0c-2.8.5-2.8,1-4.1,1.1s-1.4-.3-4.8-1.4a28.53,28.53,0,0,0-4.9-1.4c-3-.4-4.9.4-5.3-.3s.9-1.4.7-2.8a2.77,2.77,0,0,0-1.8-2.1c-.4-.2-.9-.3-2.3,0-1.6.3-2.2.8-4.2,1.6-2.7,1.1-3.4.9-3.7.9a5.11,5.11,0,0,1-2.5-1.6c-1-1.1-.7-1.5-1.8-3-.7-.9-1.5-2-2.7-2.1-.5-.1-.8.1-1.2.1a1.27,1.27,0,0,1-.6-.1,1.74,1.74,0,0,1-.9-1.8c-.6-8.9-.2-15.6.4-18,.2-.8.7-1.9,1.6-4.2a4.74,4.74,0,0,1,1.2-1.9,4.65,4.65,0,0,1,2.3-.9c3.1-.5,3.9.2,6.2-.4,2.1-.5,2.6-1.1,2.8-1.6a3.3,3.3,0,0,0-.2-2.7c-3.7-.1-7.4-.1-11.1-.2a5.34,5.34,0,0,1-1.4-2.3c-.3-1.1-.5-3.1.5-3.9.6-.5,1.1-.1,2.2-.6,1.3-.6,1.3-1.4,2.5-1.9.6-.3.9-.2,2.4-.1,2.8.1,4.3.1,4.8-.6a2.74,2.74,0,0,0-.3-3.1c-1.1-1.1-3,0-4.2-1.3a2.65,2.65,0,0,1-.6-1.1c-.6-1.6-1.7-6.9-.2-14,.1-.6.4-1.7-.2-2.3-.4-.5-1-.4-2.9-.8a8.11,8.11,0,0,1-1.1-.3,1.88,1.88,0,0,1-.9-.4c-.3-.3-.6-.8-.8-2.8-.2-2.6-.4-4,.3-4.8s1.5-.5,2.1-1.5a4.1,4.1,0,0,0,.5-2.6c-.1-1-.5-1.1-.9-2.4-.6-1.8,0-2.3-.6-3.2-.8-1.2-2.2-.4-3.4-1.4-.5-.5-.7-1.1-1.1-5.9-.2-3.7-.2-4.1,0-4.6a7.51,7.51,0,0,1,3.7-4,19.21,19.21,0,0,1,4.5-1.3c2.4-.5,3.4-.4,3.8-1.2.2-.5-.1-1.2-.7-2.5s-1-2-1.6-2.3c-1-.6-1.5.1-2.9-.5-.5-.2-1.6-.6-1.9-1.5a2.54,2.54,0,0,1,.5-2.2c.8-1.5,1.8-1.4,2-2.3.1-.7-.3-1-1.3-2.8a11.89,11.89,0,0,1-1.6-3.3c-.5-1.7,0-2.6.1-4.6.2-2.4-.4-3.3-1.1-6.6a37.7,37.7,0,0,1-.6-3.9c.6-.3.5-.5,1.3-.9,1.4-.6,2,0,3.4-.3s1.3-1.2,2.7-1.6c1.7-.5,2.3.6,3.6,0s1-1.6,2.2-2,1.8.5,2.9,0c.8-.4.8-1,1.7-1.2a2.89,2.89,0,0,1,1.6.4,13.09,13.09,0,0,1,2,1.1c1.8.6,3.1-2.1,6.7-2.9a8.63,8.63,0,0,1,2.5-.2c4.6-.2,6.3,1.3,8.1.1a5.28,5.28,0,0,1,2.1-1.2c1-.2,1.2.2,1.9,0,1.6-.5,1.4-3.2,3.2-4a2.79,2.79,0,0,1,1.6-.1c7,.5,8.6-.2,10.6,0,.3,0,.5.1.8.1a2,2,0,0,0,1.5-.1c.6-.3.5-.8,1.1-1.2s1.3.1,2.1-.2c1.1-.4.7-1.8,1.9-3.4.9-1.3,2.7-2.5,4.1-2.1,1.1.3,1,1.2,2.4,1.9.8.3,1.3.3,3.3.2,4.5-.2,4.4-.1,4.7-.2,1.7-.8,1.1-2.1,3.6-4.4,1.1-1,1.8-1.3,1.8-1.9s-.9-.9-2.8-2.2-2.6-1.8-2.8-2.7a3.38,3.38,0,0,1,1.5-3.1,4.07,4.07,0,0,1,2.9-.4,8.65,8.65,0,0,1,1.7.7c1.6.7,2.4,0,5.1-.1s3.2.8,4.5.2a5.3,5.3,0,0,0,2.5-2.7A30.53,30.53,0,0,0,851,6.8c0-.3.2-.9.6-1s.8.5,1.8.8c.5.2.5,0,2.3.2a11.05,11.05,0,0,1,1.8.2,3.65,3.65,0,0,1,1.3,2.6,2,2,0,0,0,.1.9c.5.6,2.2.5,2.9-.4a2,2,0,0,0,.3-1.9c-.4-1.5-2-1.4-2.9-3.1-.8-1.4-.7-3.4.1-3.9.4-.2.8,0,1.4.2,4,1.4,6.3.7,7.1,2.2a3.63,3.63,0,0,1,.3,1.1c.3,1.1,0,1.5.2,2A2.92,2.92,0,0,0,871,7.9c2.2-.3,2.3-3.4,4.2-3.6.7-.1.8.3,3.1,1.2a16.4,16.4,0,0,0,3.4,1.1c2.6.3,3.6-.9,5.6-.1.7.3.4.4,1.7,1.2,2.8,1.7,4.3,1.4,5.4,2.9.4.6.1.5.7,1.6s1.6,2.8,3.3,3.3c1.2.4,1.6-.3,3.1.1a8,8,0,0,1,2.3,1.3c2.3,1.6,2.2,2.1,3.3,2.6a4.26,4.26,0,0,0,3.5-.2,3.66,3.66,0,0,0,1.2-1.3,26.24,26.24,0,0,1,6.6-6.3,3,3,0,0,1,1-.5,5.41,5.41,0,0,1,2.2,0,5.9,5.9,0,0,0,3.1-.1c.8-.4.6-.9,1.4-1.4,1.5-1,3.8-.2,5,.6a2.08,2.08,0,0,1,1,1.1c.1.6-.4.8-1,2.1a2.22,2.22,0,0,0-.3,1.3,1.89,1.89,0,0,0,1,1c2.4,1.3,3.6,4.2,6.2,6.4a3.19,3.19,0,0,1,.6.8,4.1,4.1,0,0,1,.2,1.8c-.4,2.9.3,3.6-.5,4.9-.5.7-.8.5-1.2,1.1-1.2,1.7-.3,4.5.5,6.6a19.77,19.77,0,0,0,1.8,3.6c1.4,2.4,2.2,3.8,3.8,4.3a12.56,12.56,0,0,0,2.9.5c1.4.1,1.8,0,2.3.4s.6,1.3.6,2.6c.1,1.5.1,2.3-.3,2.8-.9,1.5-3,.8-3.8,2.3-.3.5-.2,1-.1,2.1a19.09,19.09,0,0,0,1.3,4.4,18.7,18.7,0,0,1,1.1,4.2c.3,2.1,0,3-.4,3.7a3.44,3.44,0,0,1-1.2,1.3,3.5,3.5,0,0,1-3.3-.5c-1.1-.7-1-1.3-1.8-1.5a2.71,2.71,0,0,0-2.5,1.1c-.8,1.1-.8,2.8.1,3.5s2.1-.2,2.8.5c.9.9-.7,2.8.3,4.3.6,1,1.4.6,2.2,1.8.2.4.2.4,1,2.3.5,1.2.6,1.4.8,1.5a2.94,2.94,0,0,0,3.1-.3c1.8-1.3.9-3.5,2.6-4.5,1-.7,2.4-.4,3.3-.3a4,4,0,0,1,2.6,1.2c.9,1.3-.2,2.7.7,3.6.4.4.8.3,2.5.3,3.7.1,4.7.7,6-.2a2.47,2.47,0,0,0,1.1-1.3,7.7,7.7,0,0,0,.3-2.5c0-1.8,0-1.8.1-2a3.67,3.67,0,0,1,1.8-2.2c.5-.2.7-.2,2.5-.2,2.9,0,3.2-.1,3.8.3s.5.9,1.5,1.6,1.2.4,1.9.9c1.6,1.2.6,3.7,1.9,4.4.3.2.2,0,1.9.1s2.2.3,2.5,0c.5-.5,0-1.9-.7-2.9-1.3-1.8-2.8-1.4-3.8-3-.5-.9-.1-1-.7-3.4-.7-2.9-1.6-4.1-1.1-4.7.2-.2.4-.1,1.9-.1,2.5.1,2.8-.1,3.5.2s.8.7,2,2c2.7,3.1,3.6,3.1,4,4.7a13.88,13.88,0,0,1,.1,2.7c-.1,1.2-.4,1.8,0,2.3s.7.5,1.8.8c2.3.6,3.5,1,3.8,1.7a2.55,2.55,0,0,1-.4,2.2c-.5,1.2-1.1,1.2-1.6,2.4a12.08,12.08,0,0,0-.4,2.1c-.3,1.1-.4,1.7-.6,2.4a9.05,9.05,0,0,0-.8,2.3,2.14,2.14,0,0,0,.1,1.4c.5.8,1.7.7,2.3.7a4.93,4.93,0,0,0,3-1.1c1.1-.8.9-1.4,1.7-1.8s1.2.2,2.8.2c.9,0,1.7,0,2-.5s.1-1.5-.2-2.5a12.44,12.44,0,0,0-1-2c-.5-.8-.7-1.2-.9-1.3s-.8-.3-3.6.1c-1,.1-1.3.2-1.5,0-.5-.4-.4-1.6.1-2.4a3.72,3.72,0,0,1,1.7-1.2,8.7,8.7,0,0,1,2.3-.6,22.63,22.63,0,0,1,2.5-.1c1.2.1,1.5.2,2.9.3a21.75,21.75,0,0,0,2.5.1c4.1,0,4.4-.4,5,.1.8.6.3,1.4,1.3,4.7a12.76,12.76,0,0,0,1.4,3.3c.6.8,1.5,2.1,2.9,2.3.7.1,1-.2,1.8,0a4.28,4.28,0,0,1,1.8,1.1c1.4,1,3-.1,6-.3,3.9-.3,6.1,1.1,6.9,0,.4-.6-.1-1,.3-2.4a9.12,9.12,0,0,1,1.2-2.3c1.1-1.7,1.7-2.6,2.2-2.8a3.2,3.2,0,0,1,3,.3,3.27,3.27,0,0,1,1.2,2.3,6.6,6.6,0,0,1,0,2.8,22.91,22.91,0,0,1-.7,2.8c-.4,2.3.1,2.9-.5,3.9a3.64,3.64,0,0,1-2.3,1.4,3.89,3.89,0,0,1-2.5-.5c-1.1-.7-.9-1.3-1.8-1.6s-1.7.3-2.5.7a8,8,0,0,0-2.1,1.9,9.84,9.84,0,0,0-1.9,3.5,20.73,20.73,0,0,0-.5,3.7,2.37,2.37,0,0,1-1.1,1.9c-.7.3-1.4-.3-2.1,0-.2.1-.7.4-.9,2.1s-.5,3.8.7,5.1a26.89,26.89,0,0,0,4.2,2.1c.8.4,1.6.7,1.6,1.2s-.7.6-1.2,1.6a2,2,0,0,0-.3,1.9c.3.7,1.6,1,2.5.9a.6.6,0,0,0,.4-.1,5.45,5.45,0,0,0,1.3,3.3c.8.7,1.6.9,2.3,2.1a3.51,3.51,0,0,1,.5,3.1,3.45,3.45,0,0,1-2.1,1.4c-1.7.6-2.3.1-3.1.7-1.2,1-.9,3.3-.8,3.5a5.21,5.21,0,0,0,1.2,2.5,4.77,4.77,0,0,0,2.3,1.7,4.51,4.51,0,0,0,3.3-.8c.7-.4.7-.6,1.8-1.4,1.3-.9,1.9-1.4,2.5-1.3,1.2.1,1.9,1.9,2.1,2.8a5.56,5.56,0,0,1-.7,4.1c-.1.2-.3.3-.4.5a10.16,10.16,0,0,1-4.6,2.6c-1.9.6-3.1.6-3.3,1.4a1.29,1.29,0,0,0,.8,1.5c.8.2,1.3-1.3,2.5-1.3a2.55,2.55,0,0,1,2.2,1.9c.3.9-.1,1.8-1,3.4-1.2,2.3-1.9,2.5-1.9,3.6,0,1.5,1.4,2.5,1.9,2.9a4.69,4.69,0,0,0,3.4,1.2,4.8,4.8,0,0,0,3.1-2.2c1-1.8-.2-3,.7-4.4a4.32,4.32,0,0,1,4.2-1.2c2.6.6,3.4,3.5,3.5,4A20.4,20.4,0,0,1,1054.2,164.6Z" transform="translate(-0.64 -0.37)"/>
<path class="cls-4" d="M1565.2,396.4c-.8.5-2.2-1.8-5.6-2.6a4.8,4.8,0,0,0-2.8,0c-1.4.5-1.3,1.4-2.3,1.9-2.3,1-4.6-2.2-6.8-1.2a3.42,3.42,0,0,0-1.6,2.1c-.6,1.6.3,2.4-.2,3.5-.7,1.5-2.8.8-3.8,2.3s-.3,4,.7,5.4c.8,1.2,1.6,1.3,2.1,2.6a10.47,10.47,0,0,1,.5,2.6l-2.1,1.4a4.74,4.74,0,0,1,1.2,3.8c-.1.3-.2,1.1-2.6,3.8-1.9,2.1-2.1,2-2.8,3.1-1.7,2.4-.8,3.5-1.9,4.7-2.3,2.4-7.2-1.3-10.4,1.2-1.9,1.5-1.2,3.9-3.1,4.5-1.5.5-2.2-1-5.6-1.2a9.82,9.82,0,0,0-2.8.2c-1.4.4-1.7.9-2.8,1.2-2,.6-2.6-.5-4.2-.2-2.7.5-4.1,4.1-4.5,4.9-1,2.4-.2,3-1.2,5.7-1.1,2.9-2.3,2.6-3.1,4.9-1.2,3.5,1.1,4.9-.2,8.5-.7,1.9-1.5,1.9-1.9,3.8-.2.9-.2,1.9.7,5.4.7,2.8,1.1,3.3,1.4,4.7.6,2.2.4,4.3,0,8.5-.5,5.6-1.3,7.4,0,9.6.4.7.6.8,1.4,2.1a13.49,13.49,0,0,1,2.1,4.9c.2,1.1,0,1,0,3.1.1,4.2.9,5.6,0,6.6-.7.7-1.4.2-2.8,1.2a5.24,5.24,0,0,0-2.1,2.4c-1.5,2.7-.2,4.9-1.5,5.9-.6.4-1.2.2-2.8,0-2.3-.3-5.2-.6-7.3.3-2.3,1-1.5,2.6-5.1,5.2a10.46,10.46,0,0,1-3.5,2c-1.3.4-2,.2-2.6.8-1,1-.1,2.3-.7,3.5-1.4,2.6-8.3,2.2-8.7.8-.1-.5.7-.8,1.3-2.2a5.37,5.37,0,0,0,.5-2.9,5.59,5.59,0,0,0-1.9-3.3,5,5,0,0,0-2.7-1.8,6.89,6.89,0,0,0-3.1.6c-1.5.5-1.5.7-2,.7-1.6-.1-2-2.4-3.4-2.4-.9,0-.9.9-2,1.1s-1.3-.7-2.8-1.1a5.71,5.71,0,0,0-3.9.4c-1.2.7-1.3,1.6-2,2.2-1.3,1.1-3.3.1-8.6-1.7-4.6-1.5-6.9-2.3-8.8-2.8a16.35,16.35,0,0,1-4.3-1.7,25.34,25.34,0,0,1-3.3-2.2,44.93,44.93,0,0,1-4.2-3.1c-1.4-1.2-1.6-1.5-2.4-1.8-1.8-.7-2.9.8-4,.1s-.4-2.2-1.5-3.2-3.3-.8-4.6.2c-1,.8-1.2,1.9-1.5,3.3-.8,3.6.6,4.7-.4,6.6-.9,1.7-2.2,1.4-3.3,3.3-.9,1.5-.4,2.4-.7,4.5-.8,5.1-4.4,6.1-4.5,10.8,0,.7.1.5.2,2.8.2,3.1.3,4.6,0,5.9-.4,1.8-.9,1.5-1.9,4.2-.6,1.8-.6,2.4-1.2,4.5a46.32,46.32,0,0,1-1.9,5.4c-4.2,10.8-5.5,10.2-5.7,13.7-.1,3.3.9,5.6-.2,10.3-.2.7-.3,1.2-.6,2a82.62,82.62,0,0,1-6.6,14.8,5.74,5.74,0,0,0-1.1,3.1c0,.9.3,1.3.1,2.1-.3,1.1-1,1.3-1.1,2a1,1,0,0,0,.2.9,7.08,7.08,0,0,1-1.4-.1,2.78,2.78,0,0,1-1.3-.3,4.12,4.12,0,0,1-1.6-2.1,3.84,3.84,0,0,1-.5-2.6c.1-.2.1-.2.9-1.7.6-1.1.8-1.5.7-1.9a2,2,0,0,0-.7-1.1c-1.3-1.2-2.5-4.3-3.8-6.7-3.7-7-11.2-14.1-13.8-20.9a24.56,24.56,0,0,0-2.4-5c-.9-1.4-1.3-1.6-2.5-3.5-2.2-3.4-2-4.4-2-4.8a8.18,8.18,0,0,1,1.4-2.8c1.1-1.4,2-1.8,1.9-2.6a1.93,1.93,0,0,0-1.1-1.4c-1.1-.4-1.7.7-3.7.9-1.4.2-1.9-.3-2.5.2s-.5,1.3-1.3,1.8a2.39,2.39,0,0,1-1.1.3c-1,0-1.6-.9-2.7-1.9a34.76,34.76,0,0,0-4.5-3.3c-.9-.6-1.6-1-2-1.3-15.4-5.8-21.5-8.6-23.3-9.8a14.4,14.4,0,0,0-2.8-1.5c-1.5-.6-2-.4-4.2-1.1-2.8-.9-3.3-1.5-3.6-2s-.1-.7-.3-1.6a7.1,7.1,0,0,0-2.9-3.8,9.55,9.55,0,0,0-3.3-1.9c-.6-.2-1.7-.3-4.4.4-4.5,1.1-6.7,2.9-9.5,4a6.87,6.87,0,0,0-1.8,1c-.5.4-.9.7-1.2,1-2.6,0-5.2-.1-7.8-.1l-9.9-16.8a1.18,1.18,0,0,0-1.1-1.1,1.3,1.3,0,0,0-1.2.8c-5.3-.1-10.7-.1-16.1-.2a3.11,3.11,0,0,0-.6-2.6c-.3-.4-.7-.3-1.8-.7-2.1-.7-2.5-.6-3.3-1.2-1.3-.8-1-1.3-2.2-1.8-.9-.5-1.5-.3-2.5-1a9.35,9.35,0,0,0-1.2-1c-1.1-.9-1.2-.9-2-1.6s-.8-.8-1.8-1.7c-.9-.7-1.3-1.1-1.8-1.2a2.8,2.8,0,0,0-2,.3,8.26,8.26,0,0,0-1.9,1.4c-1.2.9-1.2.8-1.9,1.4-1,.8-1,1-1.6,1.3a3.82,3.82,0,0,1-1.9.3,4.84,4.84,0,0,1-2.1-1.2c-1.3-1.1-1.5-2-2.1-2-.3,0-.6.3-1.2.9a17.45,17.45,0,0,0-1.8,2.7c-.7,1.4-.7,1.5-1.1,1.8s-1.3.3-2.6.1a12.06,12.06,0,0,1-3.3-.8,16.25,16.25,0,0,1-2-1.1c-1.3-.8-1.8-1.3-2.5-1.2a2.19,2.19,0,0,0-1.5.8c-.1,1-.1,1.9-.2,2.9-.8-.1-1.8-.3-2.8-.5a39.72,39.72,0,0,1-4-1.2c-2.6-.9-2.8-1.2-3.4-1-1.6.7-.5,4.7-2.4,5.7-.5.3-1.2.2-2.6,0a11.49,11.49,0,0,1-3.9-1.3c-.7-.4-1.1-.8-3.7-4.5-2.3-3.2-2.6-3.9-2.4-4.6.3-1.1,1.4-1,2-2.5.4-.9.1-1.3.1-3,0-1.4,0-3.2.9-4.5a5.5,5.5,0,0,1,3.8-2.1c.6-7.6,1.3-14.4,1.9-20.2a21.24,21.24,0,0,1,2.6-8.9c1.1-1.9,2-3.6,4-4.9s3.7-1.6,3.8-2.6-1.6-1.9-2.1-2.1c-1.8-.9-2.7-.3-4.7-.9-.5-.2-3.6-1.1-4.2-3.5a3.52,3.52,0,0,1,.7-3.3,3.44,3.44,0,0,1,3.8-.5c-.2-1-.5-2-.7-3.1a6.81,6.81,0,0,1-3.5.5,7.59,7.59,0,0,1-4.5-2.4c-1.1-1-3-2.8-2.8-5.2.1-1.5,1-2.5,2.1-3.8a8.89,8.89,0,0,1,3.3-2.6c2.7-1,4.1.8,6.3,0,1.5-.5,2.1-2,3.8-4.7a18.25,18.25,0,0,0,3.1-9.2c0-2.3-.8-4.5-2.3-8.9-1.1-3-1.6-3.8-2-4.2-2.3-2.8-4.5-2.3-5.1-4-.8-2.6,3.1-7.5,7.5-9.3a6.82,6.82,0,0,0,2.9-1.6c.7-.8.8-1.6,1.3-6,.4-3.2.4-3.7.1-4.5a5.66,5.66,0,0,0-2.7-2.8c-2.5-1.6-3.4-.7-4.8-1.9-.5-.5-.7-.8-2.5-7.8a13.78,13.78,0,0,1-.5-2.6c.1-2.1,1.4-2.7,1.9-5.1a10.73,10.73,0,0,0,0-4c-.4-2.6-1.1-3-1.2-4.8a7.12,7.12,0,0,1,1.3-4.2c1.6-2.3,4.2-3.1,8.5-4.3a20,20,0,0,0,2.7-.8c2-1.1,2.4-2.4,4.8-5.4,2.6-3.3,3.3-3.2,3.9-4.9a5.43,5.43,0,0,0,.2-2.5c1.5.2,2.6-.4,3.1.2s-.5,1.7.1,2.6a2.43,2.43,0,0,0,.9.7c5.6,2.6,7.8,5.3,15.3,6.8,5.7,1.1,10,2,14.6-.2,1.6-.8,5.5-2.7,7.2-7.1a13.52,13.52,0,0,0-.6-9.9c-.9-1.8-1.4-1.6-2.3-3.8-.6-1.4-3-6.4-1.4-10.5a8.12,8.12,0,0,0,.8-3.9s-.1-.9-.3-1.9c-.8-2.6-3.7-6.2-8.2-8-2.4-1-3-.5-5.2-1.8a11.42,11.42,0,0,1-4-3.4c-1.5-2.2-.6-3-2.2-5.2-1.2-1.6-2.1-1.8-2.6-3.4a4.84,4.84,0,0,1-.1-2.8,7.46,7.46,0,0,1,2.1-2.8,13.22,13.22,0,0,1,2.5-2.1,9.92,9.92,0,0,1,3.2-1.4c2.5-.7,3.7,0,6-.1,5.2-.2,10-4.1,10.3-6.6a6.57,6.57,0,0,1,.3-1.3c.5-1,1.1-1.1,2.5-2.2a10.07,10.07,0,0,0,2-2.1c.7-.9.7-1.4,1.3-1.6.4-.2.7.1,2,.3a4.44,4.44,0,0,0,1.8.2c1-.2,1.2-1.2,2.2-2.5a9,9,0,0,1,2.5-2.1c2-1.3,2.9-1.1,4-2.5a3.08,3.08,0,0,0,.8-1.5c.2-.8-.1-1.2,0-2.2a2.69,2.69,0,0,1,.4-1.3,5.69,5.69,0,0,1,2.6-2.7c6.8,13.7,15,30.2,24.8,50.2a5.23,5.23,0,0,0,.9,3.8c.8,1.1,2.4,2.3,3.3,1.9s.3-2.1.7-3.5c.8-2.9,5.6-1.6,11.5-5.2a7.28,7.28,0,0,0,2.3-1.9c2-2.7.6-7,.2-8.5-.3-1.2-.5-1.3-.7-2.2-.2-1.5-.1-4.5,1.5-5.4s4,1.2,5.2.1c.5-.5.2-.9.8-2.4.3-.7,1-2.3,2-2.6s2.2.6,3.5,1.7c5.5,4.4,8.2,6.6,10.2,6a11.3,11.3,0,0,1,3.4-.9c.8,0,1.2,0,1.4.3.6.5.4,1.6.2,2.7a43.26,43.26,0,0,1-3.8,9.2c-.4.8-.7,1.3-.5,1.8.5,1.2,3.5,1.5,5.9.9,1.6-.4,1.7-.9,3.4-1.2,1.1-.2,2.9-.5,3.9.4.7.7.4,1.4.9,4.2.4,2.1.7,1.9.9,3.6.5,3-.3,3.9.5,4.9s2.4,1.2,4.9,1.3a16.82,16.82,0,0,0,7.1-1.2,15.56,15.56,0,0,1,2.4-1.1,9.41,9.41,0,0,1,6.1.4c2.7,1.2,2.5,3,5.2,3.8a5.78,5.78,0,0,0,3.7-.1c1.7-.8,1.4-2.1,3.1-3.1a4.84,4.84,0,0,1,5.3.2c.9.8.5,1.5,1.3,2.1,1.8,1.4,7.2-.5,8.5-3.9,1-2.5-.7-4.4.6-5.8.8-.8,2.1-.8,4.2-.7a23.22,23.22,0,0,1,4.5.6c2.8.5,3.2.7,3.9.4.9-.5,1.3-1.5,2-3.2s.5-2.2,1.2-2.8a3.84,3.84,0,0,1,3.1-.9,7.62,7.62,0,0,1,2.9.9c3,1.2,4.1-.7,7.3.1,2,.5,1.8,1.3,5.2,2.9,2.4,1.2,2.8.9,4.9,1.8,1.8.8,7.4,3.1,8.5,7.4.6,2.3-.7,2.9.2,4.9s2.4,1.8,5.3,4.6c1.7,1.6,3.2,3,3.9,5.3.4,1.2.4,2.8.4,6.2a16.19,16.19,0,0,0,.2,4.2c.4,1.7,1,2,1.1,3.5.1,1.7-.5,2.3,0,3,.6.9,1.7.4,2.8,1.6.8.8.5,1.1,1.1,1.6,1.2,1,3-.2,5.3,0a8.22,8.22,0,0,1,4.2,1.9c2.2,1.5,6.3,3.6,15,6,2.5,3.2,2.8,4.4,2.5,4.8s-1.8-.4-2.6.4c-.6.5-.5,1.5-.4,3.5s.2,3.1.9,3.5,1.6-.4,2.6,0,1,1.5,2.4,4.6c.5,1.1.9,2.1,1.9,4,1.1,2.2,1.4,2.7,1.6,3.8a20.16,20.16,0,0,0,.5,2.8c.3,1,.9,3.1,2.1,3.3s1.5-1.4,3.3-1.7a6.84,6.84,0,0,1,3.3.9c2.1,1,2.4,1.8,3.3,1.7s1-1.4,2.1-1.9a3.84,3.84,0,0,1,3.1.5s.9.4,18.4,7.8a3.31,3.31,0,0,0,2.8.2c1.3-.6,1.7-2.6,1.9-3.5.4-1.8-.1-2,.2-2.8.9-2,3.8-1.1,6.1-3.3,1.4-1.4.6-2.1,2.4-4.5a9.54,9.54,0,0,1,5.2-4c.8-.2,3.7-1,5.2.7a4.54,4.54,0,0,1-.5,5.9c-1.3,1-2.6.2-4,1.4a3.73,3.73,0,0,0-1.2,3.3c.3,1.5,1.8,2.3,2.8,2.8,2.2,1.1,3.2.5,4.2,1.6.5.5.7,1.4,1.2,3.1s.6,3,.7,3.3c.5,3.3,3.5,7.9,7.5,9.2,2.1.6,2.8-.1,4.9.9a10,10,0,0,1,3.5,3.1,8.94,8.94,0,0,1,1.9,3.3C1565.1,393.7,1565.9,395.9,1565.2,396.4Z" transform="translate(-0.64 -0.37)"/>
<path class="cls-4" d="M1257.5,234.4a5.69,5.69,0,0,0-2.6,2.7c-.2.5-.3,1-.4,1.3-.1,1,.2,1.5,0,2.2a3.08,3.08,0,0,1-.8,1.5c-1.1,1.3-2,1.2-4,2.5a13.86,13.86,0,0,0-2.5,2.1c-1.1,1.3-1.3,2.3-2.2,2.5a4.55,4.55,0,0,1-1.8-.2c-1.3-.3-1.6-.5-2-.3-.6.2-.6.7-1.3,1.6a10.07,10.07,0,0,1-2,2.1c-1.3,1.2-2,1.3-2.5,2.2a2.78,2.78,0,0,0-.3,1.3c-.3,2.5-5.1,6.4-10.3,6.6-2.3.1-3.5-.6-6,.1a13,13,0,0,0-3.2,1.4,13.22,13.22,0,0,0-2.5,2.1,8.31,8.31,0,0,0-2.1,2.8,4.76,4.76,0,0,0,.1,2.8c.5,1.6,1.4,1.9,2.6,3.4,1.6,2.2.7,2.9,2.2,5.2a11.42,11.42,0,0,0,4,3.4c2.2,1.3,2.7.8,5.2,1.8,4.5,1.8,7.4,5.4,8.2,8a6.46,6.46,0,0,1,.3,1.9,8.44,8.44,0,0,1-.8,3.9c-1.6,4.1.8,9.1,1.4,10.5,1,2.1,1.5,2,2.3,3.8a13.43,13.43,0,0,1,.6,9.9,13.29,13.29,0,0,1-7.2,7.1c-4.6,2.2-8.9,1.3-14.6.2-7.5-1.5-9.7-4.2-15.3-6.8a2.43,2.43,0,0,1-.9-.7c-.6-1,.3-2-.1-2.6s-1.5,0-3.1-.2a4.61,4.61,0,0,1-2.7-1.4c-.4-.7-.1-1.3.3-3.1,0,0,.2-1.1.3-2.4,0-.3.4-4.2-1.9-7.1a12.92,12.92,0,0,0-2.2-1.9c-3.2-2.5-4.8-3.7-6-4-2.5-.6-3.7.8-5.5-.4-.9-.6-.9-1.1-1.9-2.2a12.94,12.94,0,0,0-6.8-3.8c-1.7-.3-3.9-.8-5.8.5-.7.5-1.3,1.4-2.6,3.4a17.54,17.54,0,0,0-2,3.6c-.5,1.7-.1,2-.7,3.9a24.9,24.9,0,0,0-1.1,2.6,8.92,8.92,0,0,0,0,3.3,19.07,19.07,0,0,1,.5,2.6c0,.8,0,1.9-.7,2.4-.9.6-2.3,0-3.3-.5-1.6-.7-1.6-1.3-2.8-1.7a6.87,6.87,0,0,0-3.4.3,13.26,13.26,0,0,0-3.8,1.8,6.91,6.91,0,0,0-2.3,1.8c-.7,1.1-.5,2-1.2,2.4a2.25,2.25,0,0,1-2.1-.4c-1.2-.7-1-1.6-2.2-2.6a4.14,4.14,0,0,0-2.5-1.1,4.77,4.77,0,0,0-2.5.6,14.72,14.72,0,0,0-2.8,1.6,18,18,0,0,1-6.1,2.5,15,15,0,0,1-2.2.2,101.58,101.58,0,0,1-12.6-.2,2.11,2.11,0,0,0-2.4,1.3c-.5.9-1.6,1.4-3.8,2.4-3.9,1.8-4.4,1-5.7,2.2-1.4,1.4-.8,2.5-2.2,3.6-1.8,1.4-4.7,1.2-5.2.2-.3-.5.3-.8.1-1.9s-.8-1.2-1.1-2.4a4.47,4.47,0,0,1,.6-3.1,5.29,5.29,0,0,1,1.9-1.6,16.88,16.88,0,0,1,3.3-1.9c1.9-.8,2.7-.6,3.5-1.5a2.34,2.34,0,0,0,.7-1.5c.1-.9-.6-1.6-1.3-2.6,0,0-.6-1.1-1.9-3.2-2.3-3.9-2.2-4.9-3.6-5.7-1-.5-1.1-.1-2.4-.7-2.2-1.1-2.1-2.9-3.6-3.2-.8-.2-.8.4-3.6,1.1a4.39,4.39,0,0,1-2.7.2,3.83,3.83,0,0,1-1.6-1.3,3.59,3.59,0,0,1-.2-3.6c.5-.8,1.2-.9,1.7-2a2.66,2.66,0,0,0,.3-1.2c-.2-1.3-2.2-1.8-2.6-1.9-1.5-.4-2.2,0-3.9,0-2,0-1.9-.6-4.8-1.2-2.3-.4-4.4-.8-6.3.2-1.3.7-1.1,1.2-2.4,1.8s-2.6.4-4.7,0-3.1-.5-3.7-1.2c-.9-1-.8-2.3-.7-4.2s.2-3.8,1.5-5.5,2.2-1.2,3.1-2.8a6.48,6.48,0,0,0,.6-4,15.78,15.78,0,0,0-.9-2.6c-.5-1.9.1-3.1.5-5.3.7-3.5,1.3-6.2.1-7.9-1-1.4-2.3-.8-6.7-2.2-4.2-1.3-8-3.3-7.8-4.3a.22.22,0,0,1,.2-.2,2.69,2.69,0,0,0,.9-.6c.8-1,.3-1.9.9-2.8.7-1.1,1.7-.6,3-1.6,1.6-1.3.8-3,2.2-4.5.9-.9,2.3-1.1,5.2-1.4,2.1-.2,3.3-.2,6.9-.5a5.13,5.13,0,0,0,3.5-1.2c.6-.6,1.3-1.6.9-2.3s-1.5-.8-3.1-1.1c-4.9-.7-4.5-1.7-8.6-2-2.9-.3-3.5.2-4.6-.6-1.7-1.2-1.9-3.6-2-5.2-.1-1.3-.7-5.3,1.1-6.2.9-.5,1.6.2,2.8-.4.9-.4.8-1.2,1.7-2a4.86,4.86,0,0,1,2.7-1.3c0-8.9.1-17.9.1-26.8l-.6-2.4c-.2-4.1-.5-8.2-.7-12.4-.1-.1-.1-.2-.2-.3a6.25,6.25,0,0,1-.7-2.3c-.2-1.5.2-2-.2-2.5-.6-.7-1.9.1-4.5-.1a5.66,5.66,0,0,1-2.8-.8,4.47,4.47,0,0,1-1.9-2.5c-.1-.4-.8-2.3.1-3.2.4-.4,1.3-.4,3.2-.2s2.1.4,2.2.5c.7.5.1,1.3.8,2.6a2.49,2.49,0,0,0,1.1,1.2,2.86,2.86,0,0,0,2.8-.7c.4-.3,1.1-1,1.8-5.4.4-2.4.5-3.6.2-4.6-.2-.5-1-3.4-3.5-4a4.05,4.05,0,0,0-4.2,1.2c-.9,1.3.3,2.5-.7,4.4a4,4,0,0,1-6.5,1,4.63,4.63,0,0,1-1.9-2.9c0-1.1.7-1.3,1.9-3.6.8-1.6,1.2-2.5,1-3.4a2.66,2.66,0,0,0-2.2-1.9c-1.2,0-1.6,1.5-2.5,1.3a1.29,1.29,0,0,1-.8-1.5c.2-.8,1.4-.8,3.3-1.4,1.5-.5,3.4-1.1,4.6-2.6.1-.2.3-.3.4-.5a5.56,5.56,0,0,0,.7-4.1c-.2-.9-.9-2.7-2.1-2.8-.6-.1-1.2.4-2.5,1.3-1.1.8-1.1,1-1.8,1.4a4.51,4.51,0,0,1-3.3.8,3.89,3.89,0,0,1-2.3-1.7,4.75,4.75,0,0,1-1.2-2.5c0-.3-.4-2.5.8-3.5.8-.6,1.3-.1,3.1-.7a3.19,3.19,0,0,0,2.1-1.4c.6-1.2-.3-2.8-.5-3.1-.7-1.2-1.6-1.4-2.3-2.1a5.45,5.45,0,0,1-1.3-3.3c2.7-.6,5.3-4.5,6.5-7.5a3.64,3.64,0,0,1,1.6-2.3c.9-.4,1.4.1,3.4,0a6,6,0,0,0,3-.7c1.1-.7,1-1.4,1.8-1.9,1.2-.7,2.5.2,5.1,1.1,4.9,1.7,7.4.8,8.6,2.8.3.5.1.4.5,1.8s1.7,4.8,4.6,5.8a3,3,0,0,0,2.1.2c1.8-.7,2.6-4.2,1.8-6.7a14.63,14.63,0,0,1-.9-2.1c-.3-1.1-.8-2.8,0-3.7.6-.7,1.8-.7,4.2-.7,1.8,0,2.2.2,2.8-.2,1-.6.9-1.7,1.4-3.2a9.22,9.22,0,0,1,5.3-5.3c.9-.3,2.9-1,4.6-.2,1.1.5,1.4,1.4,2.8,1.8a1.45,1.45,0,0,0,.6.1,5.25,5.25,0,0,0,1.7-.1c2.4-.5,11.7-7.8,13.8-9.4.4-.3,1.4-1,1.2-1.8-.2-1.1-2.4-1.1-2.6-2.1s1-1.9,1.9-2.5c2.8-1.7,5-.1,9-1.2,1.3-.4,1.1-.6,3.3-1.6,1.9-.9,5.1-2.2,15.5-5.8.3-.1,1.9-.7,1.9-1.4s-.9-.6-1.2-1.4c-.4-1,.6-2.6,1.8-3.4a4.7,4.7,0,0,1,3.9-.4c1.1.4,1.1.8,2.1,1.2s1.6.3,3.7,0c3.4-.5,5.2-.8,5.6-1.4.8-1.1-.1-2,.7-3.7a4.6,4.6,0,0,1,3.3-2.5,4.06,4.06,0,0,1,3.5,1.6c.4.5.8,1.2.9,3.3a16,16,0,0,1-.9,6.5c-1,3-1.8,5.1-3.9,6.2a7.05,7.05,0,0,1-5.7.2c-.3-.2-1-.5-2.1-1.1-1.7-.8-2.1-.8-2.5-.7-1.1.3-1.5,1.6-1.6,1.8-.5,1.5.9,2.5,2.3,5.3,1.6,3.2.9,3.8,2.3,5.8,1,1.4,2,1.9,4.1,3.4,3.6,2.5,3.6,3,6.9,5.5,5.6,4.1,6,3,10.4,6.4,4.8,3.6,4.1,4.9,9.7,9,2.3,1.7,3.1,2,5.7,4.1,3.3,2.7,2.9,2.9,6.2,5.6,3.9,3.2,5.4,3.7,7.6,6.5.3.4.9,1.2,1.9,2.8.2.3,2.3,3.4,3.4,5.1a76.79,76.79,0,0,1,3.8,7.6c1.1,2.4,2.1,4,5.9,9.7,4.2,6.3,6.6,9.9,8.9,13.2.4.5.8,1.1,1.2,1.6C1229.5,180.1,1238.1,195.7,1257.5,234.4Z" transform="translate(-0.64 -0.37)"/>
<path class="cls-4" d="M1385.6,613.2c-.9-1.2-2.4-.3-5.1-.9-1.2-.3-2.9-1.7-6.4-4.4a7.41,7.41,0,0,1-2.2-2.1,7.08,7.08,0,0,1-1.4-.1,2.78,2.78,0,0,1-1.3-.3,4.12,4.12,0,0,1-1.6-2.1,3.84,3.84,0,0,1-.5-2.6c.1-.2.1-.2.9-1.7.6-1.1.8-1.5.7-1.9a2,2,0,0,0-.7-1.1c-1.3-1.2-2.5-4.3-3.8-6.7-3.7-7-11.2-14.1-13.8-20.9a24.56,24.56,0,0,0-2.4-5c-.9-1.4-1.3-1.6-2.5-3.5-2.2-3.4-2-4.4-2-4.8a8.18,8.18,0,0,1,1.4-2.8c1.1-1.4,2-1.8,1.9-2.6a1.93,1.93,0,0,0-1.1-1.4c-1.1-.4-1.7.7-3.7.9-1.4.2-1.9-.3-2.5.2s-.5,1.3-1.3,1.8a2.39,2.39,0,0,1-1.1.3c-1,0-1.6-.9-2.7-1.9a34.76,34.76,0,0,0-4.5-3.3c-.9-.6-1.6-1-2-1.3-15.4-5.8-21.5-8.6-23.3-9.8a14.4,14.4,0,0,0-2.8-1.5c-1.5-.6-2-.4-4.2-1.1-2.8-.9-3.3-1.5-3.6-2s-.1-.7-.3-1.6a7.1,7.1,0,0,0-2.9-3.8,9.55,9.55,0,0,0-3.3-1.9c-.6-.2-1.7-.3-4.4.4-4.5,1.1-6.7,2.9-9.5,4a6.87,6.87,0,0,0-1.8,1c-.5.4-.9.7-1.2,1-2.6,0-5.2-.1-7.8-.1l-9.9-16.8a1.18,1.18,0,0,0-1.1-1.1,1.3,1.3,0,0,0-1.2.8c-5.3-.1-10.7-.1-16.1-.2a3.11,3.11,0,0,0-.6-2.6c-.3-.4-.7-.3-1.8-.7-2.1-.7-2.5-.6-3.3-1.2-1.3-.8-1-1.3-2.2-1.8-.9-.5-1.5-.3-2.5-1a9.35,9.35,0,0,0-1.2-1c-1.1-.9-1.2-.9-2-1.6s-.8-.8-1.8-1.7c-.9-.7-1.3-1.1-1.8-1.2a2.8,2.8,0,0,0-2,.3,8.26,8.26,0,0,0-1.9,1.4c-1.2.9-1.2.8-1.9,1.4-1,.8-1,1-1.6,1.3a3.82,3.82,0,0,1-1.9.3,4.84,4.84,0,0,1-2.1-1.2c-1.3-1.1-1.5-2-2.1-2-.3,0-.6.3-1.2.9a17.45,17.45,0,0,0-1.8,2.7c-.7,1.4-.7,1.5-1.1,1.8s-1.3.3-2.6.1a12.06,12.06,0,0,1-3.3-.8,16.25,16.25,0,0,1-2-1.1c-1.3-.8-1.8-1.3-2.5-1.2a2.19,2.19,0,0,0-1.5.8c-.1,1-.1,1.9-.2,2.9,0,.7-.1,1.4-.1,2,.3.6.6,1.3.9,1.9,0,8.9-.1,17.7-.1,26.6-.6.2-1.6.6-2.7,1a43,43,0,0,0-4.3,1.5,11.25,11.25,0,0,0-3.6,2.6H1167c-.5-.4-1.1-.8-1.6-1.2a25.93,25.93,0,0,1-8.9-.9,22.72,22.72,0,0,1-5.7-2.3c-1.6-1-2.3-1.9-4-2.5a12.21,12.21,0,0,0-4-.4c-3.4.1-5.6-1.2-8.6-2.2-7-2.6-14.5-2.6-16.8-2.6-3.9,0-9.2,0-13.7,2.3-.6.3-1.8,1-3.8,2-3.5,1.8-4.5,1.9-6.6,3.1-3.5,1.9-4.8,3.2-9.2,5.9-4,2.5-3.9,2-6,3.4-3.7,2.5-7,6.7-13.5,15-1.5,1.9-2.7,3.5-4.8,5.9-1.5,1.8-2.8,3.2-3.7,4.3h.2a17.71,17.71,0,0,1-.6,3.4,26.46,26.46,0,0,1-1.5,3.9c-.5,1.3-.8,1.7-1.2,2.8a24.42,24.42,0,0,0-1.1,3.5c-.6,2.4-.5,4.8.3,14.9a27.38,27.38,0,0,0,.6,4.8,44.45,44.45,0,0,0,1.4,4.9c.6,1.9,1.2,3.4,1.3,3.8,1.4,3.7,1.6,3.4,2.1,5,.7,2.3.6,4.8.3,9.6a17.09,17.09,0,0,1-.4,3.3c-.3,1-.8,1.5-.7,2.5a4.42,4.42,0,0,0,.7,1.9,5.36,5.36,0,0,0,2.3,1.9c1.2.6,1.6.3,2.9.8a11.3,11.3,0,0,1,2.8,1.5,13.94,13.94,0,0,1,3.8,3.9c.4.6.7,1.3,1.5,1.6s1,.1,1.7.2c1.6.3,2.5,2.1,2.8,2.7a5.07,5.07,0,0,1,.6,3.6c-.2.9-.6,1.1-1.1,1.9-1.4,2.5-.2,5.7.1,6.6a12.14,12.14,0,0,0,2.7,4.1,9.46,9.46,0,0,0,3.4,2.7,11.43,11.43,0,0,0,2.7.8c1.3.3,1.5.3,2.2.5a7,7,0,0,1,2.9,1.9c1.2,1,.7.4,5.1,3.3a40.43,40.43,0,0,1,3.6,2.6c1.8,1.6,1.6,2.1,3.2,3.3,1.3,1,2,1,2.9,2.1a11.55,11.55,0,0,1,1.2,2.2,13.27,13.27,0,0,1,.5,5.4c-.2,3.5-.3,5.2-1.1,6.9a4.25,4.25,0,0,0-.5,2.5c.1.8.4,1,.5,1.8a5,5,0,0,1-.4,2.7,11.51,11.51,0,0,1-2.6,4.1,19.36,19.36,0,0,1-2.7,2.1,14.86,14.86,0,0,0-2.7,1.9c-.6.7-1.6,1.7-1.4,2.8.1.5.4.8,1.6,1.8a18.69,18.69,0,0,0,3.2,2.3c2,1,2.4.5,5.3,1.4,2.2.7,3.3,1.1,4.1,2.1a5.66,5.66,0,0,1,.5,5.6c-.7,1.8-1.6,1.6-2.7,3.7a11.07,11.07,0,0,0-.9,4.6,13.54,13.54,0,0,0,.9,3.9c.9,3.2,1.4,4.8,2.1,5.5,1.7,1.7,3.2.6,4.8,2.5.9,1.1.5,1.5,2.1,4.2a11.38,11.38,0,0,0,1.8,2.5,9.24,9.24,0,0,0,3.3,2.1c1,.4,2,.9,3,1.4,0-.1.1-.1.1-.2a5.14,5.14,0,0,1,1.4-1.3c1.7-1.1,3.6-.8,9.2,0s6,.9,7.3,1.2c3.4.8,3,1,5.4,1.4a56,56,0,0,0,8.6.6c3,.1,3.4,0,3.8-.1,2.5-.7,2.8-2.4,5.3-3.4,1.2-.5,2.5-.5,5.1-.6,3.8-.1,5.7-.1,6.9,1.1s1.3,2.6,2.8,3.1a2.18,2.18,0,0,0,1.4,0c2.7-.5,5.9-.5,11.7-.3a20,20,0,0,1,3.7.2c2.7.4,2.8,1.1,4.9,1.3,2.9.3,3.8-.8,5.3.1,1.3.8.9,1.8,2.4,2.8a5.61,5.61,0,0,0,4.5.6c1.3-.4,1.3-1,2.6-1.5,2.8-1.2,4.3,1.3,7.2.2a26.94,26.94,0,0,1,3.8-1.6,2.76,2.76,0,0,1,1.8,0,2.24,2.24,0,0,1,1.2,1.6c.4.8,1.1,1.5,5.6,3.2,2.9,1.1,2.9.7,7.4,2.3,3.3,1.2,5.3,2,6.9,1.1.7-.4,1.1-1.1,2.1-1.2a2.54,2.54,0,0,1,2.3.9,3.52,3.52,0,0,1,.3,2.5c-.1,3,1.5,6.5,3.3,7.1.8.2,1.2-.2,1.9.2a3.4,3.4,0,0,1,1.6,2.3c.9,2.8,1.6,6,3.4,6.9,2.6,1.4,4.9-1,10.2.2a45.34,45.34,0,0,1,4.4,1.2c1.4.4,2.7.9,3.5,1.2,3.6,1.6,4.2,5.3,9.5,12.5.7.9,1.8,2.4,2.7,2.1s1-1.5,1.2-2.5a9.41,9.41,0,0,0,0-3.9c-.6-3-1.9-3.3-2.8-6.7-.6-2.2-.3-3.1,0-3.7a3.89,3.89,0,0,1,1.9-1.4s-.4-1.4-.5-1.8c-.6-2-2.2-2.2-3-3.9-.7-1.4-.2-2.9.2-4.4.8-2.8,2-2.7,2.3-4.9.2-1.7-.5-2.5.2-4.2a2.56,2.56,0,0,1,1.2-1.8c1.1-.5,1.9,1,3.7,1.2,2.9.4,5.4-2.7,6-3.4.9-1.1,1.4-1.6,1.2-2.3-.4-1.8-4.4-1.1-5.8-3.7a4.26,4.26,0,0,1,0-4.1c.9-1.4,2.5-.9,5.1-2.8,1.5-1.1,1.2-1.4,2.3-1.9,2.3-1.2,3.8.1,5.3-1.1a4.72,4.72,0,0,0,1.4-3.3c.1-1.4-.5-1.6-.3-3.4.1-1.1.3-1.7-.1-2.2a1.14,1.14,0,0,0-1.2-.4c-1.2,0-1.6,1-2.3.9-.5-.1-.8-.8-.9-1.3-.3-2,2.1-4.4,2.8-5.1a3.27,3.27,0,0,0,1.1-1.8,1.91,1.91,0,0,0-.4-1.4c-1.8-3-2.6-16.7-7.1-21.4a7,7,0,0,1-1.7-2.6c-.5-1.4-.1-1.9-.2-3.5-.2-2.8-1.5-2.9-1.9-5.9-.3-2,.3-2,0-3.8-.4-2.5-1.6-3.3-2.4-5.2-1-2.4-.1-3.9.2-7.3.8-9.1-4.1-14.4-1.2-17.9.5-.6,1.7-1.6,1.4-2.6-.3-1.2-2.3-1.4-2.3-2.3,0-.4.3-1.1,1.9-1.9a5.7,5.7,0,0,0,2.6-1.2,2.73,2.73,0,0,0,.7-2.6c-.4-1.1-1.5-1-3.8-2.3s-2.1-2-3.8-2.6a8.53,8.53,0,0,0-4.7-.2c-2.7.4-3.5,1.4-5.2.9a5.36,5.36,0,0,1-2.1-1.4c-1.1-1.2-.6-2.1-1.6-3.3s-2-1-2.1-1.6c-.2-1,2-2,4.2-3.5a27.53,27.53,0,0,0,5.4-4.9s1.6,2,3.1,1.9c.9-.1.8-.9,1.9-1.4,2.3-1.2,5.2,1.2,6,.2.3-.3-.1-.5.1-1.4a3.62,3.62,0,0,1,2.4-2.9c.7-.2.8.1,2.4.3a8,8,0,0,0,3.7-.3c1.3-.6,1.1-1.2,2.6-1.7a3.35,3.35,0,0,1,2.5-.2c.8.3.6.8,1.4,1.1a3.91,3.91,0,0,0,3.1-.1c.9-.3,1-.7,1.8-1.1,2-1.3,3.1-.1,5.2-1s1.8-2.4,4-3c1.1-.3,1.5,0,3-.4h0a13.59,13.59,0,0,0,2.7-1.4c3-1.5,4.4.2,6.7-1.2,1.7-1,1.3-2.1,3.3-3.1a6.33,6.33,0,0,1,3.5-.7,5.16,5.16,0,0,1,3.5,2.2c.9,1.5-.1,2.4.5,4.1,1.3,3.2,4.6,5.8,7.7,5.5,2-.2,2.7-1.8,7.1-3.1,2.4-.7,3.5-.6,4.5-.3a8,8,0,0,1,3.3,2.1,36.46,36.46,0,0,0,2.9,3.2c.8.7,1.1.8,1.4.8.5,0,1.3-.3,2.5-3,1-2.2.9-3,1.9-6.9a29.26,29.26,0,0,0,1.1-5.3C1386.2,614,1385.9,613.5,1385.6,613.2ZM1175,734.5c-.2.3-.6,0-1.5.3-.1,0-.2.1-.3.1a2.1,2.1,0,0,0-.8.6l-.4.4c-.8,1.3.1,2.9.1,3,.5.8.8.7,1.2,1.5a3.32,3.32,0,0,1,.1,2.6,3.56,3.56,0,0,1-1.6,2.2c-1.1.6-2.2.3-3.5-.1a9.11,9.11,0,0,1-3.2-1.7c-1.3-1-2.3-1.8-2.7-3.1-.3-.8-.1-.9.1-4.1.2-2.7,0-2.9.4-3.5.6-.9,1.6-1.3,3.6-2.1a18.38,18.38,0,0,1,2.4-.7c2.7-.8,3.1-.6,3.3-.5s.5.3,1.5,2.1C1175.2,733.9,1175.2,734.3,1175,734.5Z" transform="translate(-0.64 -0.37)"/>
<path class="cls-3" d="M965.3,265.5c-.5.3-1.1-.4-1.8,0s-.3,1.4-1,2.1c-.9.9-2.2,0-3,.8s.2,2.7-.7,3.4a2.15,2.15,0,0,1-2.3-.2c-1.4-.8-1-2.3-2.3-2.9-1-.5-1.7.4-2.9-.1a3.94,3.94,0,0,1-1.9-2.5c-.5-1.3,0-1.7.4-5.9.2-1.6.2-2.5.9-3a3.16,3.16,0,0,1,1.9-.4c1.5.2,2,1.4,2.8,1.2.5-.2.4-.7,1.1-1.1a2,2,0,0,1,2.1.2c.5.4.3.9.6,1.7s1.2,1.3,2.7,2.1c1.9,1,2.3.9,2.8,1.6C965.7,263.6,965.8,265.1,965.3,265.5Z" transform="translate(-0.64 -0.37)"/>
<path class="cls-4" d="M1175,734.5c-.2.3-.6,0-1.5.3-.1,0-.2.1-.3.1a2.1,2.1,0,0,0-.8.6l-.4.4c-.8,1.3.1,2.9.1,3,.5.8.8.7,1.2,1.5a3.32,3.32,0,0,1,.1,2.6,3.56,3.56,0,0,1-1.6,2.2c-1.1.6-2.2.3-3.5-.1a9.11,9.11,0,0,1-3.2-1.7c-1.3-1-2.3-1.8-2.7-3.1-.3-.8-.1-.9.1-4.1.2-2.7,0-2.9.4-3.5.6-.9,1.6-1.3,3.6-2.1a18.38,18.38,0,0,1,2.4-.7c2.7-.8,3.1-.6,3.3-.5s.5.3,1.5,2.1C1175.2,733.9,1175.2,734.3,1175,734.5Z" transform="translate(-0.64 -0.37)"/>
<path class="cls-4" d="M892.2,793.3c-.4.3-.8.3-5-.1-2.2-.2-2.8-.3-3.4.1-1,.7-.8,2-1.8,2.4a2.32,2.32,0,0,1-1.8-.4,3.78,3.78,0,0,1-1.9-1.8c-.5-1.1-.1-2.4.8-4.8a13.84,13.84,0,0,1,1.7-3.8,10.05,10.05,0,0,1,4.3-3.4c1.5-.6,3-1.2,4.4-.6a4.73,4.73,0,0,1,2.3,3.5c.2,1.7-.8,2.9-.1,3.7.4.5.9.2,1.3.7C893.8,789.7,893.5,792.4,892.2,793.3Z" transform="translate(-0.64 -0.37)"/>
<path class="cls-5" d="M285.6,3843.9" transform="translate(-0.64 -0.37)"/>
<path class="cls-5" d="M283,3847" transform="translate(-0.64 -0.37)"/>
<path class="cls-5" d="M7.7,3629.2" transform="translate(-0.64 -0.37)"/></svg>